<svg width="29" height="34" viewBox="0 0 29 34" fill="none" xmlns="http://www.w3.org/2000/svg">
<path d="M14.4375 13.7285C16.2422 13.7285 17.918 12.7617 18.8848 11.1504C19.7871 9.60352 19.7871 7.60547 18.8848 5.99414C17.918 4.44727 16.2422 3.41602 14.4375 3.41602C12.5684 3.41602 10.8926 4.44727 9.92578 5.99414C9.02344 7.60547 9.02344 9.60352 9.92578 11.1504C10.8926 12.7617 12.5684 13.7285 14.4375 13.7285ZM22.6875 8.57227C22.6875 11.5371 21.0762 14.2441 18.5625 15.7266C15.9844 17.209 12.8262 17.209 10.3125 15.7266C7.73438 14.2441 6.1875 11.5371 6.1875 8.57227C6.1875 5.67188 7.73438 2.96484 10.3125 1.48242C12.8262 0 15.9844 0 18.5625 1.48242C21.0762 2.96484 22.6875 5.67188 22.6875 8.57227ZM6.38086 23.0098L3.22266 33.3223H0L4.125 19.916H24.75L28.875 33.3223H25.5879L22.4297 23.0098H20.1094V26.2324C21.8496 26.748 23.2031 28.3594 23.2031 30.2285V32.291V33.3223H22.1719H20.625H19.5938V31.2598H20.625H21.1406V30.2285C21.1406 29.1328 20.1738 28.166 19.0781 28.166C17.918 28.166 17.0156 29.1328 17.0156 30.2285V31.2598H17.5312H18.5625V33.3223H17.5312H15.9844H14.9531V32.291V30.2285C14.9531 28.3594 16.2422 26.748 18.0469 26.2324V23.0098H10.8281V26.2969C12.3105 26.748 13.4062 28.1016 13.4062 29.7129C13.4062 31.7109 11.7305 33.3223 9.79688 33.3223C7.79883 33.3223 6.1875 31.7109 6.1875 29.7129C6.1875 28.1016 7.21875 26.748 8.76562 26.2969V23.0098H6.38086ZM11.3438 29.7129C11.3438 28.875 10.6348 28.166 9.79688 28.166C8.89453 28.166 8.25 28.875 8.25 29.7129C8.25 30.6152 8.89453 31.2598 9.79688 31.2598C10.6348 31.2598 11.3438 30.6152 11.3438 29.7129Z" fill="white"/>
</svg>
