<svg width="42" height="33" viewBox="0 0 42 33" fill="none" xmlns="http://www.w3.org/2000/svg">
<path d="M23.7188 3.09375H7.21875V6.1875H15.4688H16.5V8.25H15.4688H1.03125H0V6.1875H1.03125H4.125V3.09375V0H7.21875H23.7188H26.8125V3.09375V6.1875H30.4219H31.002L31.4531 6.63867L38.7363 13.8574L39.1875 14.3086V14.9531V23.7188H39.7031H41.25V26.8125H39.7031H37.125C37.125 30.2285 34.3535 33 30.9375 33C27.5215 33 24.75 30.2285 24.75 26.8125H24.2344H23.7188H20.625H16.5C16.5 30.2285 13.7285 33 10.3125 33C6.89648 33 4.125 30.2285 4.125 26.8125V23.7188V18.5625H7.21875V21.4629C8.12109 20.9473 9.15234 20.625 10.3125 20.625C12.5684 20.625 14.5664 21.9141 15.6621 23.7188H20.625H23.7188V3.09375ZM26.8125 9.28125V15.4688H35.9648L29.7773 9.28125H26.8125ZM13.4062 26.8125C13.4062 25.7168 12.7617 24.75 11.8594 24.1699C10.8926 23.5898 9.66797 23.5898 8.76562 24.1699C7.79883 24.75 7.21875 25.7168 7.21875 26.8125C7.21875 27.9727 7.79883 28.9395 8.76562 29.5195C9.66797 30.0996 10.8926 30.0996 11.8594 29.5195C12.7617 28.9395 13.4062 27.9727 13.4062 26.8125ZM30.9375 29.9062C32.0332 29.9062 33 29.3262 33.5801 28.3594C34.1602 27.457 34.1602 26.2324 33.5801 25.2656C33 24.3633 32.0332 23.7188 30.9375 23.7188C29.7773 23.7188 28.8105 24.3633 28.2305 25.2656C27.6504 26.2324 27.6504 27.457 28.2305 28.3594C28.8105 29.3262 29.7773 29.9062 30.9375 29.9062ZM3.09375 10.3125H17.5312H18.5625V12.375H17.5312H3.09375H2.0625V10.3125H3.09375ZM1.03125 14.4375H15.4688H16.5V16.5H15.4688H1.03125H0V14.4375H1.03125Z" fill="white"/>
</svg>
