<svg width="29" height="29" viewBox="0 0 29 29" fill="none" xmlns="http://www.w3.org/2000/svg">
<path d="M12.8906 8.25V3.09375H6.12305L3.80273 8.25H12.8906ZM25.0078 8.25L22.6875 3.09375H15.9844V8.25H25.0078ZM3.09375 11.3438V25.7812H25.7812V11.3438H3.09375ZM4.125 0H24.75L28.875 9.28125V25.7812V28.875H25.7812H3.09375H0V25.7812V9.28125L4.125 0ZM14.4375 23.7188L8.95898 18.9492C7.54102 17.7246 7.41211 15.5332 8.76562 14.1797C10.0547 12.9551 12.1172 12.9551 13.4062 14.1797L14.4375 15.2109L15.4043 14.1797C16.6934 12.9551 18.7559 12.9551 20.0449 14.1797C21.3984 15.5332 21.2695 17.7246 19.8516 18.9492L14.4375 23.7188Z" fill="white"/>
</svg>
