<svg width="35" height="33" viewBox="0 0 35 33" fill="none" xmlns="http://www.w3.org/2000/svg">
<path d="M17.2734 3.09375C12.4395 3.09375 8.05664 5.67188 5.60742 9.79688C3.22266 13.9863 3.22266 19.0781 5.60742 23.2031C8.05664 27.3926 12.4395 29.9062 17.2734 29.9062C22.043 29.9062 26.4258 27.3926 28.875 23.2031C31.2598 19.0781 31.2598 13.9863 28.875 9.79688C26.4258 5.67188 22.043 3.09375 17.2734 3.09375ZM17.2734 33C11.3438 33 5.92969 29.9062 2.96484 24.75C0 19.6582 0 13.4062 2.96484 8.25C5.92969 3.1582 11.3438 0 17.2734 0C23.1387 0 28.5527 3.1582 31.5176 8.25C34.4824 13.4062 34.4824 19.6582 31.5176 24.75C28.5527 29.9062 23.1387 33 17.2734 33ZM24.4922 9.79688V16.5V23.2031V24.75H21.3984V23.2031V18.0469H13.1484V23.2031V24.75H10.0547V23.2031V18.0469V14.9531V9.79688V8.25H13.1484V9.79688V14.9531H21.3984V9.79688V8.25H24.4922V9.79688Z" fill="white"/>
</svg>
