<svg width="38" height="33" viewBox="0 0 38 33" fill="none" xmlns="http://www.w3.org/2000/svg">
<path d="M3.09375 3.09375V17.5312H8.76562H10.3125V20.625H8.76562H3.09375V23.7188H8.76562H10.3125V26.8125H8.76562H3.09375V29.9062H17.5312V3.09375H3.09375ZM0 0H3.09375H17.5312H20.625V3.09375V23.1387L16.3066 33H3.09375H0V29.9062V3.09375V0ZM8.76562 6.1875H11.8594V8.76562H14.4375V11.8594H11.8594V14.4375H8.76562V11.8594H6.1875V8.76562H8.76562V6.1875ZM22.6875 17.5312C22.6875 15.7266 23.6543 14.0508 25.2656 13.084C26.8125 12.1816 28.8105 12.1816 30.4219 13.084C31.9688 14.0508 33 15.7266 33 17.5312C33 19.4004 31.9688 21.0762 30.4219 22.043C28.8105 22.9453 26.8125 22.9453 25.2656 22.043C23.6543 21.0762 22.6875 19.4004 22.6875 17.5312ZM33.5156 24.75L37.125 33H18.5625L22.1719 24.75H33.5156Z" fill="white"/>
</svg>
