<svg width="33" height="29" viewBox="0 0 33 29" fill="none" xmlns="http://www.w3.org/2000/svg">
<path d="M16.5 8.50781L14.3086 6.31641L12.6973 4.76953C11.666 3.73828 10.248 3.09375 8.70117 3.09375C5.60742 3.09375 3.09375 5.67188 3.09375 8.76562C3.09375 10.3125 3.67383 11.7305 4.70508 12.7617L6.25195 14.373L16.5 24.5566L26.6836 14.373L28.2305 12.7617C29.2617 11.7305 29.9062 10.3125 29.9062 8.76562C29.9062 5.67188 27.3281 3.09375 24.2344 3.09375C22.6875 3.09375 21.2695 3.73828 20.2383 4.76953L18.627 6.31641L16.5 8.50781ZM18.627 26.748L16.5 28.875L14.3086 26.748L4.125 16.5L2.51367 14.9531C0.902344 13.3418 0 11.0859 0 8.76562C0 3.93164 3.86719 0 8.70117 0C11.0215 0 13.2773 0.966797 14.8887 2.57812L16.5 4.125L18.0469 2.57812C19.6582 0.966797 21.9141 0.0644531 24.2344 0.0644531C29.0684 0 33 3.93164 33 8.76562C33 11.0859 32.0332 13.3418 30.4219 14.9531L28.875 16.5L18.627 26.748Z" fill="white"/>
</svg>
