<?xml version="1.0" encoding="UTF-8" standalone="no"?>
<!DOCTYPE svg PUBLIC "-//W3C//DTD SVG 1.1//EN" "http://www.w3.org/Graphics/SVG/1.1/DTD/svg11.dtd">
<svg width="100%" height="100%" viewBox="0 0 3361 644" version="1.1" xmlns="http://www.w3.org/2000/svg" xmlns:xlink="http://www.w3.org/1999/xlink" xml:space="preserve" xmlns:serif="http://www.serif.com/" style="fill-rule:evenodd;clip-rule:evenodd;stroke-linejoin:round;stroke-miterlimit:2;">
    <g transform="matrix(1,0,0,1,-73.992083,-94.567083)">
        <g transform="matrix(4.166667,0,0,4.166667,0,0)">
            <g transform="matrix(1,0,0,1,197.6323,27.3066)">
                <path d="M0,74.175C-1.315,74.175 -1.972,73.72 -1.972,72.809L-1.972,72.355L15.018,8.647C15.117,8.445 15.169,8.191 15.169,7.888C15.169,6.675 14.282,5.259 12.514,3.641C10.745,2.024 9.86,1.063 9.86,0.759C9.86,0.254 10.314,0 11.225,0L48.692,0C49.904,0 50.512,0.507 50.512,1.517L50.512,1.972L33.523,65.53L33.523,65.984C33.523,66.996 34.179,67.502 35.494,67.502L72.809,67.502C73.618,67.502 74.024,67.653 74.024,67.956C74.024,68.16 73.719,68.463 73.112,68.865L67.045,72.809C65.73,73.72 64.316,74.175 62.798,74.175L0,74.175Z" style="fill:rgb(0,61,167);fill-rule:nonzero;"/>
            </g>
        </g>
        <g transform="matrix(4.166667,0,0,4.166667,0,0)">
            <g transform="matrix(1,0,0,1,365.6979,101.4815)">
                <path d="M0,-74.175C1.313,-74.175 1.972,-73.668 1.972,-72.658C1.972,-69.116 0.705,-67.348 -1.82,-67.348L-39.135,-67.348C-40.754,-67.348 -41.713,-66.742 -42.016,-65.528C-46.164,-49.954 -48.235,-42.067 -48.235,-41.865C-48.235,-40.853 -47.58,-40.349 -46.263,-40.349L-8.95,-40.349C-8.142,-40.349 -7.736,-40.196 -7.736,-39.893C-7.736,-39.689 -8.039,-39.438 -8.645,-39.135L-14.715,-35.04C-16.03,-34.129 -17.497,-33.674 -19.113,-33.674L-48.084,-33.674C-49.704,-33.674 -50.664,-33.015 -50.967,-31.702C-55.115,-16.129 -57.186,-8.29 -57.186,-8.191C-57.186,-7.178 -56.529,-6.673 -55.214,-6.673L-17.899,-6.673C-17.091,-6.673 -16.686,-6.522 -16.686,-6.219C-16.686,-6.015 -16.99,-5.712 -17.596,-5.309L-23.663,-1.366C-24.978,-0.455 -26.393,0 -27.91,0L-90.708,0C-92.023,0 -92.68,-0.455 -92.68,-1.366L-92.68,-1.82L-75.691,-65.528L-75.691,-66.287C-75.691,-67.5 -76.551,-68.916 -78.271,-70.534C-79.99,-72.151 -80.849,-73.112 -80.849,-73.415C-80.849,-73.921 -80.394,-74.175 -79.483,-74.175L0,-74.175Z" style="fill:rgb(0,61,167);fill-rule:nonzero;"/>
            </g>
        </g>
        <g transform="matrix(4.166667,0,0,4.166667,0,0)">
            <g transform="matrix(1,0,0,1,447.4557,27.3066)">
                <path d="M0,74.175C-1.214,74.175 -1.82,73.72 -1.82,72.809L-1.82,72.355L9.403,28.972L9.403,28.063C9.199,28.366 8.999,28.619 8.797,28.821L-15.018,72.355C-15.727,73.569 -16.89,74.175 -18.507,74.175L-50.512,74.175C-52.13,74.175 -53.042,73.569 -53.242,72.355L-59.614,37.769C-59.614,37.367 -59.715,37.115 -59.917,37.012C-60.121,37.315 -60.273,37.569 -60.372,37.769L-69.169,72.355C-69.575,73.569 -70.534,74.175 -72.052,74.175L-84.186,74.175C-85.501,74.175 -86.158,73.72 -86.158,72.809L-86.158,72.355L-69.169,8.647C-69.069,8.445 -69.017,8.191 -69.017,7.888C-69.017,6.675 -69.904,5.259 -71.672,3.641C-73.442,2.024 -74.327,1.063 -74.327,0.759C-74.327,0.254 -73.872,0 -72.961,0L-35.494,0C-33.979,0 -33.12,0.608 -32.916,1.82L-22.905,55.365C-22.905,55.872 -22.754,56.125 -22.451,56.125C-22.148,56.125 -21.843,55.872 -21.54,55.365L7.888,1.972C8.593,0.66 9.757,0 11.375,0L48.69,0C50.003,0 50.662,0.507 50.662,1.517C50.662,1.62 50.609,1.772 50.51,1.972L31.854,72.355C31.551,73.569 30.587,74.175 28.971,74.175L0,74.175Z" style="fill:rgb(0,61,167);fill-rule:nonzero;"/>
            </g>
        </g>
        <g transform="matrix(4.166667,0,0,4.166667,0,0)">
            <g transform="matrix(1,0,0,1,497.2064,27.3066)">
                <path d="M0,74.175C-1.315,74.175 -1.972,73.72 -1.972,72.809L-1.972,72.355L15.018,8.647L15.018,7.888C15.018,6.675 14.157,5.259 12.438,3.641C10.718,2.024 9.86,1.063 9.86,0.759C9.86,0.254 10.314,0 11.225,0L48.692,0C49.904,0 50.512,0.507 50.512,1.517L50.512,1.972L31.854,72.355C31.45,73.569 30.488,74.175 28.973,74.175L0,74.175Z" style="fill:rgb(0,61,167);fill-rule:nonzero;"/>
            </g>
        </g>
        <g transform="matrix(4.166667,0,0,4.166667,0,0)">
            <g transform="matrix(1,0,0,1,559.2451,97.8402)">
                <path d="M0,-66.893C-1.719,-68.509 -2.578,-69.471 -2.578,-69.774C-2.578,-70.279 -2.123,-70.534 -1.212,-70.534L36.103,-70.534C37.719,-70.534 38.78,-69.976 39.287,-68.865L58.4,-21.539C58.499,-21.236 58.703,-20.981 59.006,-20.779C59.309,-20.779 59.511,-21.084 59.612,-21.69L71.749,-68.562C72.052,-69.873 73.011,-70.534 74.63,-70.534L86.764,-70.534C88.078,-70.534 88.736,-70.027 88.736,-69.016C88.736,-68.914 88.684,-68.762 88.585,-68.562L69.928,1.821C69.625,3.035 68.662,3.641 67.045,3.641L38.074,3.641C36.454,3.641 35.442,3.086 35.04,1.973L15.775,-45.353C15.674,-45.657 15.472,-45.859 15.169,-45.96C14.965,-45.96 14.763,-45.657 14.563,-45.05L2.58,1.821C2.174,3.035 1.214,3.641 -0.303,3.641L-12.438,3.641C-13.753,3.641 -14.41,3.187 -14.41,2.276L-14.41,1.821L2.58,-61.886L2.58,-62.646C2.58,-63.858 1.719,-65.275 0,-66.893" style="fill:rgb(0,61,167);fill-rule:nonzero;"/>
            </g>
        </g>
        <g transform="matrix(4.166667,0,0,4.166667,0,0)">
            <g transform="matrix(1,0,0,1,688.6339,73.5714)">
                <path d="M0,-18.355C-0.101,-18.858 -0.303,-19.113 -0.606,-19.113C-1.012,-19.113 -1.364,-18.858 -1.667,-18.355L-18.353,5.916C-18.557,6.32 -18.657,6.625 -18.657,6.825C-18.657,7.433 -18.202,7.736 -17.291,7.736L3.489,7.736C4.703,7.736 5.31,7.231 5.31,6.219L0,-18.355ZM-25.786,16.23L-32.915,26.09C-33.725,27.304 -34.939,27.91 -36.555,27.91L-48.538,27.91C-49.551,27.91 -50.056,27.607 -50.056,26.999C-50.056,26.799 -35.292,6.169 -5.762,-34.888C-5.156,-35.797 -4.853,-36.757 -4.853,-37.769C-4.853,-38.476 -5.081,-39.59 -5.536,-41.107C-5.991,-42.624 -6.219,-43.735 -6.219,-44.445C-6.219,-45.453 -5.562,-45.96 -4.247,-45.96L33.674,-46.265C35.291,-46.265 36.254,-45.657 36.557,-44.445L52.332,26.241L52.332,26.544C52.332,27.456 51.674,27.91 50.361,27.91L12.894,27.91C11.377,27.91 10.468,27.355 10.164,26.241L7.585,16.23C7.281,15.016 6.372,14.41 4.855,14.41L-21.994,14.41C-23.612,14.41 -24.875,15.016 -25.786,16.23" style="fill:rgb(0,61,167);fill-rule:nonzero;"/>
            </g>
        </g>
        <g transform="matrix(4.166667,0,0,4.166667,0,0)">
            <g transform="matrix(1,0,0,1,750.218,27.3066)">
                <path d="M0,74.175C-1.315,74.175 -1.972,73.72 -1.972,72.809L-1.972,72.355L15.018,8.647C15.117,8.445 15.169,8.191 15.169,7.888C15.169,6.675 14.282,5.259 12.514,3.641C10.745,2.024 9.86,1.063 9.86,0.759C9.86,0.254 10.314,0 11.225,0L48.692,0C49.904,0 50.512,0.507 50.512,1.517L50.512,1.972L33.523,65.53L33.523,65.984C33.523,66.996 34.179,67.502 35.494,67.502L72.809,67.502C73.618,67.502 74.024,67.653 74.024,67.956C74.024,68.16 73.719,68.463 73.112,68.865L67.045,72.809C65.73,73.72 64.315,74.175 62.798,74.175L0,74.175Z" style="fill:rgb(0,61,167);fill-rule:nonzero;"/>
            </g>
        </g>
        <g transform="matrix(4.166667,0,0,4.166667,0,0)">
            <g transform="matrix(1,0,0,1,216.7359,138.7664)">
                <path d="M0,28.752C4.636,28.752 8.335,27.459 11.096,24.876C13.856,22.292 15.237,18.793 15.237,14.376C15.237,9.961 13.856,6.46 11.096,3.877C8.335,1.293 4.636,0 0,0L-9.805,0L-9.805,28.752L0,28.752ZM-20.537,-8.81L0.529,-8.81C5.564,-8.81 10.013,-7.85 13.878,-5.929C17.742,-4.007 20.744,-1.302 22.887,2.187C25.029,5.676 26.101,9.738 26.101,14.376C26.101,19.014 25.029,23.078 22.887,26.565C20.744,30.054 17.742,32.759 13.878,34.681C10.013,36.602 5.564,37.562 0.529,37.562L-20.537,37.562L-20.537,-8.81Z" style="fill:rgb(111,208,236);fill-rule:nonzero;"/>
            </g>
        </g>
        <g transform="matrix(4.166667,0,0,4.166667,0,0)">
            <g transform="matrix(1,0,0,1,0,107.19)">
                <rect x="265.491" y="22.767" width="10.731" height="46.372" style="fill:rgb(111,208,236);"/>
            </g>
        </g>
        <g transform="matrix(4.166667,0,0,4.166667,0,0)">
            <g transform="matrix(1,0,0,1,328.9555,148.0425)">
                <path d="M0,10.2L-7.354,-7.553L-14.707,10.2L0,10.2ZM3.377,18.35L-18.151,18.35L-22.26,28.286L-33.257,28.286L-12.587,-18.086L-1.989,-18.086L18.746,28.286L7.485,28.286L3.377,18.35Z" style="fill:rgb(111,208,236);fill-rule:nonzero;"/>
            </g>
        </g>
        <g transform="matrix(4.166667,0,0,4.166667,0,0)">
            <g transform="matrix(1,0,0,1,397.7837,153.8728)">
                <path d="M0,-1.46L9.805,-1.46L9.805,17.356C7.287,19.254 4.372,20.712 1.061,21.728C-2.253,22.742 -5.586,23.251 -8.943,23.251C-13.757,23.251 -18.084,22.224 -21.927,20.169C-25.77,18.117 -28.784,15.268 -30.969,11.625C-33.156,7.981 -34.248,3.863 -34.248,-0.73C-34.248,-5.323 -33.156,-9.441 -30.969,-13.086C-28.784,-16.728 -25.747,-19.578 -21.861,-21.632C-17.975,-23.684 -13.603,-24.711 -8.745,-24.711C-4.681,-24.711 -0.993,-24.027 2.32,-22.657C5.631,-21.288 8.413,-19.301 10.666,-16.697L3.777,-10.335C0.464,-13.825 -3.534,-15.57 -8.213,-15.57C-11.173,-15.57 -13.802,-14.951 -16.097,-13.714C-18.395,-12.478 -20.183,-10.734 -21.463,-8.481C-22.744,-6.229 -23.384,-3.645 -23.384,-0.73C-23.384,2.141 -22.744,4.701 -21.463,6.953C-20.183,9.206 -18.406,10.963 -16.131,12.22C-13.856,13.479 -11.261,14.108 -8.346,14.108C-5.255,14.108 -2.473,13.445 0,12.121L0,-1.46Z" style="fill:rgb(111,208,236);fill-rule:nonzero;"/>
            </g>
        </g>
        <g transform="matrix(4.166667,0,0,4.166667,0,0)">
            <g transform="matrix(1,0,0,1,474.6285,176.3285)">
                <path d="M0,-46.372L0,0L-8.81,0L-31.93,-28.155L-31.93,0L-42.529,0L-42.529,-46.372L-33.652,-46.372L-10.599,-18.217L-10.599,-46.372L0,-46.372Z" style="fill:rgb(111,208,236);fill-rule:nonzero;"/>
            </g>
        </g>
        <g transform="matrix(4.166667,0,0,4.166667,0,0)">
            <g transform="matrix(1,0,0,1,530.076,140.1928)">
                <path d="M0,25.9C2.208,24.643 3.942,22.886 5.201,20.633C6.46,18.381 7.089,15.822 7.089,12.95C7.089,10.08 6.46,7.517 5.201,5.264C3.942,3.013 2.208,1.257 0,-0.002C-2.208,-1.26 -4.681,-1.89 -7.418,-1.89C-10.157,-1.89 -12.63,-1.26 -14.838,-0.002C-17.047,1.257 -18.78,3.013 -20.039,5.264C-21.298,7.517 -21.927,10.08 -21.927,12.95C-21.927,15.822 -21.298,18.381 -20.039,20.633C-18.78,22.886 -17.047,24.643 -14.838,25.9C-12.63,27.159 -10.157,27.788 -7.418,27.788C-4.681,27.788 -2.208,27.159 0,25.9M-20.436,33.818C-24.301,31.741 -27.326,28.882 -29.511,25.238C-31.698,21.595 -32.791,17.498 -32.791,12.95C-32.791,8.402 -31.698,4.304 -29.511,0.662C-27.326,-2.983 -24.301,-5.842 -20.436,-7.918C-16.572,-9.993 -12.234,-11.031 -7.418,-11.031C-2.606,-11.031 1.723,-9.993 5.566,-7.918C9.407,-5.842 12.432,-2.983 14.642,0.662C16.849,4.304 17.953,8.402 17.953,12.95C17.953,17.498 16.849,21.595 14.642,25.238C12.432,28.882 9.407,31.741 5.566,33.818C1.723,35.894 -2.606,36.931 -7.418,36.931C-12.234,36.931 -16.572,35.894 -20.436,33.818" style="fill:rgb(111,208,236);fill-rule:nonzero;"/>
            </g>
        </g>
        <g transform="matrix(4.166667,0,0,4.166667,0,0)">
            <g transform="matrix(1,0,0,1,575.2899,130.6524)">
                <path d="M0,44.98C-3.424,43.987 -6.172,42.696 -8.249,41.105L-4.604,33.023C-2.617,34.481 -0.254,35.652 2.484,36.535C5.222,37.418 7.959,37.859 10.698,37.859C13.745,37.859 15.998,37.407 17.455,36.501C18.913,35.596 19.642,34.393 19.642,32.89C19.642,31.786 19.21,30.87 18.35,30.142C17.489,29.412 16.383,28.829 15.038,28.385C13.689,27.946 11.869,27.459 9.571,26.928C6.039,26.09 3.147,25.25 0.894,24.411C-1.358,23.573 -3.291,22.224 -4.902,20.37C-6.514,18.514 -7.321,16.043 -7.321,12.95C-7.321,10.256 -6.591,7.817 -5.134,5.63C-3.676,3.444 -1.48,1.712 1.457,0.43C4.393,-0.851 7.983,-1.491 12.222,-1.491C15.18,-1.491 18.073,-1.137 20.9,-0.432C23.727,0.275 26.2,1.291 28.32,2.616L25.008,10.765C20.724,8.337 16.439,7.121 12.155,7.121C9.152,7.121 6.933,7.607 5.499,8.578C4.062,9.551 3.345,10.831 3.345,12.421C3.345,14.011 4.174,15.192 5.83,15.964C7.485,16.737 10.013,17.5 13.414,18.251C16.946,19.089 19.841,19.929 22.093,20.767C24.346,21.607 26.277,22.932 27.889,24.743C29.5,26.554 30.307,29.004 30.307,32.095C30.307,34.746 29.568,37.163 28.088,39.349C26.608,41.536 24.389,43.27 21.431,44.55C18.471,45.829 14.872,46.471 10.632,46.471C6.965,46.471 3.422,45.973 0,44.98" style="fill:rgb(111,208,236);fill-rule:nonzero;"/>
            </g>
        </g>
        <g transform="matrix(4.166667,0,0,4.166667,0,0)">
            <g transform="matrix(1,0,0,1,636.466,167.5831)">
                <path d="M0,-28.882L-14.838,-28.882L-14.838,-37.627L25.571,-37.627L25.571,-28.882L10.731,-28.882L10.731,8.745L0,8.745L0,-28.882Z" style="fill:rgb(111,208,236);fill-rule:nonzero;"/>
            </g>
        </g>
        <g transform="matrix(4.166667,0,0,4.166667,0,0)">
            <g transform="matrix(1,0,0,1,0,107.19)">
                <rect x="682.376" y="22.767" width="10.731" height="46.372" style="fill:rgb(111,208,236);"/>
            </g>
        </g>
        <g transform="matrix(4.166667,0,0,4.166667,0,0)">
            <g transform="matrix(1,0,0,1,728.0497,132.2422)">
                <path d="M0,41.8C-3.82,39.748 -6.823,36.898 -9.008,33.256C-11.195,29.611 -12.288,25.493 -12.288,20.9C-12.288,16.307 -11.195,12.189 -9.008,8.545C-6.823,4.902 -3.82,2.053 0,-0.001C3.82,-2.054 8.116,-3.081 12.885,-3.081C16.904,-3.081 20.537,-2.374 23.783,-0.961C27.029,0.453 29.755,2.483 31.964,5.134L25.076,11.493C21.938,7.873 18.052,6.06 13.416,6.06C10.544,6.06 7.983,6.691 5.731,7.948C3.478,9.207 1.723,10.964 0.464,13.215C-0.795,15.467 -1.424,18.03 -1.424,20.9C-1.424,23.772 -0.795,26.331 0.464,28.584C1.723,30.837 3.478,32.593 5.731,33.851C7.983,35.11 10.544,35.738 13.416,35.738C18.052,35.738 21.938,33.907 25.076,30.242L31.964,36.601C29.755,39.295 27.018,41.349 23.749,42.762C20.481,44.174 16.838,44.881 12.819,44.881C8.094,44.881 3.82,43.854 0,41.8" style="fill:rgb(111,208,236);fill-rule:nonzero;"/>
            </g>
        </g>
        <g transform="matrix(4.166667,0,0,4.166667,0,0)">
            <g transform="matrix(1,0,0,1,786.0155,130.6524)">
                <path d="M0,44.98C-3.424,43.987 -6.172,42.696 -8.249,41.105L-4.604,33.023C-2.617,34.481 -0.254,35.652 2.485,36.535C5.222,37.418 7.959,37.859 10.698,37.859C13.745,37.859 15.998,37.407 17.455,36.501C18.913,35.596 19.642,34.393 19.642,32.89C19.642,31.786 19.21,30.87 18.35,30.142C17.489,29.412 16.383,28.829 15.038,28.385C13.689,27.946 11.869,27.459 9.571,26.928C6.039,26.09 3.147,25.25 0.894,24.411C-1.358,23.573 -3.291,22.224 -4.902,20.37C-6.514,18.514 -7.321,16.043 -7.321,12.95C-7.321,10.256 -6.591,7.817 -5.134,5.63C-3.676,3.444 -1.48,1.712 1.457,0.43C4.393,-0.851 7.983,-1.491 12.223,-1.491C15.18,-1.491 18.073,-1.137 20.9,-0.432C23.727,0.275 26.2,1.291 28.32,2.616L25.008,10.765C20.724,8.337 16.44,7.121 12.155,7.121C9.152,7.121 6.934,7.607 5.499,8.578C4.062,9.551 3.345,10.831 3.345,12.421C3.345,14.011 4.174,15.192 5.83,15.964C7.485,16.737 10.013,17.5 13.414,18.251C16.947,19.089 19.841,19.929 22.093,20.767C24.346,21.607 26.277,22.932 27.889,24.743C29.5,26.554 30.307,29.004 30.307,32.095C30.307,34.746 29.568,37.163 28.088,39.349C26.608,41.536 24.389,43.27 21.431,44.55C18.471,45.829 14.872,46.471 10.632,46.471C6.965,46.471 3.422,45.973 0,44.98" style="fill:rgb(111,208,236);fill-rule:nonzero;"/>
            </g>
        </g>
        <g transform="matrix(4.166667,0,0,4.166667,0,0)">
            <g transform="matrix(1,0,0,1,144.7451,56.595)">
                <path d="M0,101.183C-2.194,102.703 -4.553,103.461 -7.083,103.461L-111.819,103.461C-114.013,103.461 -115.108,102.703 -115.108,101.183L-115.108,100.425L-86.773,-5.828C-86.607,-6.165 -86.52,-6.589 -86.52,-7.095C-86.52,-9.117 -87.999,-11.479 -90.947,-14.178C-92.759,-15.832 -93.946,-17.025 -94.646,-17.855L-126.987,119.038L0.708,119.038L5.839,97.387L0,101.183Z" style="fill:rgb(111,208,236);"/>
            </g>
        </g>
        <g transform="matrix(4.166667,0,0,4.166667,0,0)">
            <g transform="matrix(1,0,0,1,51.6477,135.2771)">
                <path d="M0,-98.932L62.487,-98.932C64.509,-98.932 65.523,-98.086 65.523,-96.401L65.523,-95.643L37.188,10.36L37.188,11.118C37.188,12.806 38.283,13.649 40.477,13.649L100.135,13.649L129.936,-112.086L2.242,-112.581L-1.002,-98.851C-0.716,-98.904 -0.383,-98.932 0,-98.932" style="fill:rgb(0,61,167);"/>
            </g>
        </g>
    </g>
</svg>
