<svg width="201" height="39" viewBox="0 0 201 39" fill="none" xmlns="http://www.w3.org/2000/svg">
<path d="M44.8299 19.6162C44.5021 19.6162 44.3384 19.5029 44.3384 19.2761V19.1631L48.5728 3.3009C48.5975 3.2506 48.6104 3.18736 48.6104 3.11192C48.6104 2.80991 48.3894 2.45735 47.9487 2.05449C47.5078 1.65189 47.2873 1.41262 47.2873 1.33693C47.2873 1.21119 47.4004 1.14795 47.6275 1.14795H56.9654C57.2674 1.14795 57.419 1.27418 57.419 1.52566V1.63894L53.1848 17.4638V17.5768C53.1848 17.8288 53.3483 17.9548 53.676 17.9548H62.9761C63.1777 17.9548 63.2789 17.9923 63.2789 18.0678C63.2789 18.1186 63.2028 18.194 63.0516 18.2941L61.5395 19.2761C61.2118 19.5029 60.8593 19.6162 60.481 19.6162H44.8299Z" fill="#233B9D"/>
<path d="M86.717 1.14795C87.0443 1.14795 87.2085 1.27418 87.2085 1.52566C87.2085 2.40755 86.8928 2.84775 86.2635 2.84775H76.9634C76.5599 2.84775 76.3209 2.99864 76.2454 3.3009C75.2116 7.17855 74.6954 9.14227 74.6954 9.19257C74.6954 9.44454 74.8587 9.57002 75.1869 9.57002H84.4864C84.6878 9.57002 84.789 9.60812 84.789 9.68356C84.789 9.73435 84.7135 9.79685 84.5625 9.87229L83.0496 10.8919C82.7219 11.1187 82.3563 11.232 81.9535 11.232H74.7331C74.3293 11.232 74.0901 11.3961 74.0145 11.723C72.9807 15.6004 72.4646 17.5521 72.4646 17.5768C72.4646 17.829 72.6283 17.9548 72.9561 17.9548H82.2561C82.4575 17.9548 82.5584 17.9923 82.5584 18.0678C82.5584 18.1186 82.4826 18.194 82.3316 18.2944L80.8195 19.2761C80.4918 19.5029 80.1391 19.6162 79.761 19.6162H64.1099C63.7822 19.6162 63.6184 19.5029 63.6184 19.2761V19.1631L67.8526 3.3009V3.11192C67.8526 2.80991 67.6382 2.45735 67.2096 2.0545C66.7811 1.65189 66.567 1.41262 66.567 1.33718C66.567 1.21119 66.6804 1.14795 66.9075 1.14795H86.717Z" fill="#233B9D"/>
<path d="M107.094 19.6162C106.791 19.6162 106.64 19.5029 106.64 19.2761V19.1631L109.437 8.36146V8.13514C109.386 8.21058 109.336 8.27357 109.286 8.32387L103.351 19.1631C103.174 19.4653 102.884 19.6162 102.481 19.6162H94.5044C94.1012 19.6162 93.8739 19.4653 93.824 19.1631L92.2359 10.5518C92.2359 10.4517 92.2108 10.3889 92.1604 10.3633C92.1096 10.4387 92.0717 10.502 92.047 10.5518L89.8545 19.1631C89.7533 19.4653 89.5143 19.6162 89.136 19.6162H86.1118C85.7841 19.6162 85.6204 19.5029 85.6204 19.2761V19.1631L89.8545 3.3009C89.8795 3.2506 89.8924 3.18736 89.8924 3.11192C89.8924 2.80991 89.6713 2.45735 89.2307 2.05449C88.7896 1.65189 88.569 1.41262 88.569 1.33693C88.569 1.21119 88.6824 1.14795 88.9095 1.14795H98.2474C98.6249 1.14795 98.839 1.29933 98.8899 1.6011L101.385 14.9329C101.385 15.0591 101.423 15.1221 101.498 15.1221C101.574 15.1221 101.65 15.0591 101.725 14.9329L109.059 1.63894C109.235 1.31228 109.525 1.14795 109.929 1.14795H119.229C119.556 1.14795 119.72 1.27418 119.72 1.52566C119.72 1.5513 119.707 1.58915 119.682 1.63894L115.032 19.1631C114.957 19.4653 114.717 19.6162 114.314 19.6162H107.094Z" fill="#233B9D"/>
<path d="M119.493 19.6162C119.165 19.6162 119.001 19.5029 119.001 19.2761V19.1631L123.236 3.3009V3.11192C123.236 2.80991 123.021 2.45735 122.593 2.05449C122.164 1.65189 121.95 1.41262 121.95 1.33693C121.95 1.21119 122.063 1.14795 122.29 1.14795H131.628C131.93 1.14795 132.082 1.27418 132.082 1.52566V1.63894L127.432 19.1631C127.331 19.4653 127.091 19.6162 126.714 19.6162H119.493Z" fill="#233B9D"/>
<path d="M134.955 2.05449C134.526 1.65214 134.312 1.41262 134.312 1.33717C134.312 1.21144 134.426 1.14795 134.653 1.14795H143.953C144.355 1.14795 144.62 1.28688 144.746 1.5635L149.51 13.3468C149.534 13.4223 149.585 13.4858 149.661 13.5361C149.736 13.5361 149.787 13.4601 149.812 13.3092L152.837 1.63894C152.912 1.31253 153.151 1.14795 153.555 1.14795H156.579C156.906 1.14795 157.07 1.27418 157.07 1.5259C157.07 1.5513 157.057 1.58915 157.033 1.63894L152.383 19.1631C152.307 19.4653 152.067 19.6162 151.664 19.6162H144.444C144.04 19.6162 143.788 19.478 143.688 19.2009L138.886 7.41757C138.861 7.34188 138.811 7.29159 138.735 7.26644C138.684 7.26644 138.634 7.34188 138.584 7.49301L135.598 19.1631C135.497 19.4653 135.257 19.6162 134.879 19.6162H131.855C131.527 19.6162 131.363 19.5032 131.363 19.2763V19.1631L135.598 3.30115V3.11192C135.598 2.81015 135.383 2.45735 134.955 2.05449Z" fill="#233B9D"/>
<path d="M167.202 8.09704C167.177 7.97181 167.127 7.90832 167.051 7.90832C166.95 7.90832 166.862 7.97181 166.787 8.09704L162.628 14.1401C162.577 14.2407 162.552 14.3166 162.552 14.3664C162.552 14.5178 162.666 14.5932 162.893 14.5932H168.072C168.374 14.5932 168.526 14.4675 168.526 14.2155L167.202 8.09704ZM160.776 16.7081L158.999 19.1631C158.797 19.4653 158.494 19.6162 158.092 19.6162H155.105C154.853 19.6162 154.727 19.5408 154.727 19.3894C154.727 19.3396 158.406 14.2031 165.766 3.98062C165.917 3.7543 165.993 3.51527 165.993 3.2633C165.993 3.08727 165.936 2.80991 165.823 2.4322C165.709 2.05449 165.652 1.77787 165.652 1.6011C165.652 1.35012 165.816 1.22389 166.144 1.22389L175.595 1.14795C175.998 1.14795 176.238 1.29933 176.313 1.6011L180.245 19.2007V19.2761C180.245 19.5032 180.081 19.6162 179.754 19.6162H170.416C170.038 19.6162 169.811 19.478 169.735 19.2007L169.093 16.7081C169.017 16.4058 168.79 16.2549 168.412 16.2549H161.721C161.317 16.2549 161.003 16.4058 160.776 16.7081Z" fill="#233B9D"/>
<path d="M182.551 19.6162C182.224 19.6162 182.06 19.5029 182.06 19.2761V19.1631L186.294 3.3009C186.319 3.2506 186.332 3.18736 186.332 3.11192C186.332 2.80991 186.111 2.45735 185.67 2.05449C185.229 1.65189 185.009 1.41262 185.009 1.33693C185.009 1.21119 185.122 1.14795 185.349 1.14795H194.687C194.989 1.14795 195.14 1.27418 195.14 1.52566V1.63894L190.906 17.4638V17.5768C190.906 17.8288 191.07 17.9548 191.397 17.9548H200.697C200.899 17.9548 201 17.9923 201 18.0678C201 18.1186 200.924 18.194 200.773 18.2941L199.261 19.2761C198.933 19.5029 198.581 19.6162 198.202 19.6162H182.551Z" fill="#233B9D"/>
<path d="M44.1184 36.3523C45.2739 36.3523 46.1958 36.0303 46.8839 35.3872C47.5718 34.7438 47.916 33.8727 47.916 32.7729C47.916 31.6736 47.5718 30.802 46.8839 30.1588C46.1958 29.5155 45.2739 29.1935 44.1184 29.1935H41.6747V36.3523H44.1184ZM39 27H44.2503C45.5052 27 46.614 27.239 47.5773 27.7173C48.5403 28.1959 49.2885 28.8694 49.8226 29.7381C50.3564 30.6068 50.6236 31.6181 50.6236 32.7729C50.6236 33.9277 50.3564 34.9395 49.8226 35.8077C49.2885 36.6764 48.5403 37.3499 47.5773 37.8285C46.614 38.3068 45.5052 38.5458 44.2503 38.5458H39V27Z" fill="#099EC9"/>
<path d="M59.6745 27H57V38.5458H59.6745V27Z" fill="#099EC9"/>
<path d="M74.2886 34.0427L72.4558 29.6225L70.6232 34.0427H74.2886ZM75.1303 36.0719H69.7649L68.7408 38.5458H66L71.1516 27H73.7929L78.9607 38.5458H76.1541L75.1303 36.0719Z" fill="#099EC9"/>
<path d="M93.5356 32.7891H95.9793V37.4739C95.3518 37.9465 94.6253 38.3095 93.8001 38.5625C92.9741 38.815 92.1434 38.9417 91.3068 38.9417C90.107 38.9417 89.0286 38.686 88.0708 38.1743C87.113 37.6634 86.3618 36.9541 85.8172 36.047C85.2722 35.1397 85 34.1144 85 32.9708C85 31.8273 85.2722 30.802 85.8172 29.8944C86.3618 28.9876 87.1187 28.278 88.0872 27.7666C89.0557 27.2557 90.1454 27 91.3561 27C92.369 27 93.2881 27.1703 94.1138 27.5114C94.939 27.8523 95.6324 28.347 96.1939 28.9953L94.477 30.5794C93.6513 29.7104 92.6549 29.2759 91.4887 29.2759C90.751 29.2759 90.0958 29.4301 89.5238 29.7381C88.951 30.0458 88.5054 30.48 88.1864 31.041C87.8671 31.6017 87.7076 32.2451 87.7076 32.9708C87.7076 33.6857 87.8671 34.3231 88.1864 34.8838C88.5054 35.4447 88.9483 35.8822 89.5153 36.1952C90.0823 36.5086 90.7291 36.6652 91.4556 36.6652C92.2259 36.6652 92.9193 36.5002 93.5356 36.1705V32.7891Z" fill="#099EC9"/>
<path d="M112.6 27V38.5458H110.404L104.642 31.5357V38.5458H102V27H104.212L109.958 34.0101V27H112.6Z" fill="#099EC9"/>
<path d="M127.173 36.1952C127.723 35.8822 128.155 35.4447 128.469 34.8838C128.783 34.3231 128.939 33.6859 128.939 32.9708C128.939 32.2563 128.783 31.6181 128.469 31.0572C128.155 30.4967 127.723 30.0595 127.173 29.746C126.622 29.4328 126.006 29.2759 125.324 29.2759C124.641 29.2759 124.025 29.4328 123.474 29.746C122.924 30.0595 122.492 30.4967 122.178 31.0572C121.864 31.6181 121.708 32.2563 121.708 32.9708C121.708 33.6859 121.864 34.3231 122.178 34.8838C122.492 35.4447 122.924 35.8822 123.474 36.1952C124.025 36.5086 124.641 36.6652 125.324 36.6652C126.006 36.6652 126.622 36.5086 127.173 36.1952ZM122.079 38.1666C121.116 37.6495 120.362 36.9376 119.817 36.0303C119.272 35.1233 119 34.1032 119 32.9708C119 31.8385 119.272 30.8181 119.817 29.9113C120.362 29.0038 121.116 28.292 122.079 27.7751C123.042 27.2584 124.123 27 125.324 27C126.523 27 127.602 27.2584 128.56 27.7751C129.517 28.292 130.271 29.0038 130.822 29.9113C131.372 30.8181 131.647 31.8385 131.647 32.9708C131.647 34.1032 131.372 35.1233 130.822 36.0303C130.271 36.9376 129.517 37.6495 128.56 38.1666C127.602 38.6835 126.523 38.9417 125.324 38.9417C124.123 38.9417 123.042 38.6835 122.079 38.1666Z" fill="#099EC9"/>
<path d="M140.056 38.5705C139.203 38.3232 138.518 38.0018 138 37.6056L138.908 35.5934C139.404 35.9564 139.993 36.2479 140.675 36.4678C141.357 36.6877 142.04 36.7975 142.722 36.7975C143.482 36.7975 144.043 36.6849 144.406 36.4593C144.77 36.234 144.951 35.9345 144.951 35.5603C144.951 35.2854 144.844 35.0573 144.629 34.8761C144.415 34.6943 144.139 34.5491 143.804 34.4386C143.468 34.3293 143.014 34.208 142.441 34.0758C141.561 33.8672 140.84 33.658 140.279 33.4491C139.717 33.2405 139.236 32.9046 138.834 32.443C138.432 31.9809 138.231 31.3657 138.231 30.5956C138.231 29.9248 138.413 29.3175 138.776 28.773C139.14 28.2287 139.687 27.7975 140.419 27.4783C141.151 27.1593 142.046 27 143.102 27C143.839 27 144.56 27.0881 145.265 27.2637C145.969 27.4397 146.586 27.6927 147.114 28.0226L146.289 30.0515C145.221 29.447 144.153 29.1442 143.085 29.1442C142.337 29.1442 141.784 29.2652 141.426 29.507C141.068 29.7493 140.89 30.068 140.89 30.4638C140.89 30.8597 141.096 31.1538 141.509 31.346C141.921 31.5384 142.551 31.7284 143.399 31.9154C144.279 32.1241 145.001 32.3332 145.562 32.5418C146.124 32.751 146.605 33.0809 147.007 33.5318C147.408 33.9827 147.609 34.5927 147.609 35.3623C147.609 36.0224 147.425 36.6242 147.056 37.1684C146.687 37.713 146.134 38.1447 145.397 38.4634C144.659 38.7818 143.762 38.9417 142.706 38.9417C141.792 38.9417 140.909 38.8177 140.056 38.5705Z" fill="#099EC9"/>
<path d="M157.698 29.1773H154V27H164.071V29.1773H160.373V38.5458H157.698V29.1773Z" fill="#099EC9"/>
<path d="M171.317 26.7061H168.643V38.2519H171.317V26.7061Z" fill="#099EC9"/>
<path d="M178.063 38.1746C177.11 37.6637 176.362 36.9541 175.817 36.0473C175.272 35.1397 175 34.1144 175 32.9708C175 31.8273 175.272 30.802 175.817 29.8947C176.362 28.9876 177.11 28.2783 178.063 27.7669C179.015 27.2557 180.085 27 181.274 27C182.276 27 183.181 27.176 183.99 27.5278C184.799 27.8799 185.478 28.3853 186.029 29.0454L184.312 30.6287C183.53 29.7274 182.562 29.2759 181.406 29.2759C180.69 29.2759 180.052 29.4331 179.491 29.746C178.929 30.0595 178.492 30.497 178.178 31.0574C177.864 31.6181 177.708 32.2563 177.708 32.9708C177.708 33.6859 177.864 34.3231 178.178 34.884C178.492 35.445 178.929 35.8822 179.491 36.1954C180.052 36.5089 180.69 36.6652 181.406 36.6652C182.562 36.6652 183.53 36.2094 184.312 35.2968L186.029 36.8801C185.478 37.5509 184.796 38.0623 183.982 38.4141C183.167 38.7657 182.259 38.9417 181.257 38.9417C180.08 38.9417 179.015 38.686 178.063 38.1746Z" fill="#099EC9"/>
<path d="M191.472 38.0783C190.619 37.831 189.934 37.5096 189.417 37.1135L190.325 35.1012C190.82 35.4642 191.409 35.7558 192.092 35.9756C192.774 36.1955 193.456 36.3053 194.139 36.3053C194.898 36.3053 195.46 36.1927 195.823 35.9671C196.186 35.7418 196.368 35.4423 196.368 35.0681C196.368 34.7932 196.26 34.5651 196.046 34.3839C195.831 34.2021 195.556 34.057 195.22 33.9464C194.884 33.8371 194.431 33.7158 193.858 33.5836C192.978 33.375 192.257 33.1658 191.695 32.957C191.134 32.7483 190.652 32.4124 190.251 31.9508C189.849 31.4887 189.648 30.8735 189.648 30.1034C189.648 29.4326 189.83 28.8253 190.193 28.2808C190.556 27.7365 191.104 27.3053 191.836 26.9861C192.567 26.6672 193.462 26.5078 194.519 26.5078C195.256 26.5078 195.977 26.596 196.681 26.7715C197.386 26.9475 198.002 27.2005 198.531 27.5304L197.705 29.5593C196.637 28.9548 195.57 28.652 194.502 28.652C193.753 28.652 193.201 28.7731 192.843 29.0148C192.485 29.2571 192.306 29.5758 192.306 29.9717C192.306 30.3675 192.513 30.6616 192.925 30.8538C193.338 31.0463 193.968 31.2362 194.816 31.4232C195.696 31.6319 196.417 31.841 196.979 32.0497C197.54 32.2588 198.021 32.5887 198.423 33.0396C198.825 33.4905 199.026 34.1005 199.026 34.8701C199.026 35.5302 198.842 36.132 198.473 36.6762C198.104 37.2208 197.551 37.6525 196.814 37.9712C196.076 38.2897 195.179 38.4495 194.122 38.4495C193.208 38.4495 192.325 38.3255 191.472 38.0783Z" fill="#099EC9"/>
<path fill-rule="evenodd" clip-rule="evenodd" d="M31.649 33.6384C31.1022 34.0168 30.5142 34.2055 29.8837 34.2055H3.78032C3.23351 34.2055 2.9606 34.0168 2.9606 33.6384V33.4496L10.0225 6.99451C10.0639 6.9106 10.0856 6.80503 10.0856 6.67905C10.0856 6.17561 9.71698 5.58751 8.98225 4.91551C8.53065 4.50369 8.23481 4.20666 8.06035 4L0 38.0839H31.8254L33.1042 32.6932L31.649 33.6384Z" fill="#099EC9"/>
<path fill-rule="evenodd" clip-rule="evenodd" d="M8.44626 3.39836H24.0199C24.5238 3.39836 24.7766 3.609 24.7766 4.02853V4.21726L17.7146 30.6101V30.7989C17.7146 31.2191 17.9875 31.429 18.5343 31.429H33.4029L40.8302 0.123247L9.00504 0L8.19653 3.41853C8.26781 3.40533 8.35081 3.39836 8.44626 3.39836Z" fill="#233B9D"/>
</svg>
