<svg width="303" height="278" viewBox="0 0 303 278" fill="none" xmlns="http://www.w3.org/2000/svg">
<path d="M300 81.0059V43.5059H288.867H93.7498V52.8809C93.7498 73.9746 76.7576 90.3809 56.2498 90.3809H46.8748V145.459L29.2967 162.451L18.7498 173.584V43.5059V15.3809H46.8748H224.414H225H300V-22.1191H314.062L375 29.4434L314.062 81.0059H300ZM328.125 165.381V110.889L345.117 93.8965L356.25 82.7637V212.256V240.381H328.125H85.5467H74.9998V277.881H60.9373L-0.000213623 226.318L60.9373 174.756H74.9998V212.256H150H281.25V202.881C281.25 182.373 297.656 165.381 318.75 165.381H328.125ZM187.5 71.6309C207.422 71.6309 225.586 82.7637 236.133 99.7559C246.094 117.334 246.094 139.014 236.133 156.006C225.586 173.584 207.422 184.131 187.5 184.131C166.992 184.131 148.828 173.584 138.281 156.006C128.32 139.014 128.32 117.334 138.281 99.7559C148.828 82.7637 166.992 71.6309 187.5 71.6309Z" fill="#CAEAF5"/>
</svg>
