<svg width="284" height="268" viewBox="0 0 284 268" fill="none" xmlns="http://www.w3.org/2000/svg">
<path d="M14.0623 -32.1191H74.9998C80.8592 -32.1191 86.1326 -28.0176 87.8904 -22.1582L146.484 155.967C147.656 155.967 148.828 155.381 150 155.381C169.336 155.381 186.328 165.342 196.289 180.576L318.75 137.803L331.64 133.115L341.015 159.482L328.125 164.17L205.664 206.943C205.664 208.701 206.25 210.459 206.25 211.631C206.25 242.686 181.054 267.881 150 267.881C118.945 267.881 93.7498 242.686 93.7498 211.631C93.7498 191.709 103.711 174.717 119.531 164.756L64.4529 -3.99414H14.0623H-0.000213623V-32.1191H14.0623ZM150 183.506C139.453 183.506 130.664 189.365 125.39 197.568C120.117 206.357 120.117 217.49 125.39 225.693C130.664 234.482 139.453 239.756 150 239.756C159.961 239.756 168.75 234.482 174.023 225.693C179.297 217.49 179.297 206.357 174.023 197.568C168.75 189.365 159.961 183.506 150 183.506ZM261.328 19.4434L300 124.326L273.047 133.701L239.648 42.2949L200.39 55.7715L214.453 94.4434L219.14 107.92L192.773 117.295L188.086 104.404L174.023 65.1465L140.039 77.4512L131.25 50.498L243.75 11.2402L256.64 6.55273L261.328 19.4434Z" fill="#CAEAF5"/>
</svg>
