<svg width="303" height="269" viewBox="0 0 303 269" fill="none" xmlns="http://www.w3.org/2000/svg">
<path d="M93.7498 15.3809H56.2498V52.8809H60.9373H89.0623H93.7498V15.3809ZM89.0623 81.0059V113.818H285.937V81.0059H281.25H253.125V52.8809V15.3809V-12.7441H281.25H318.75H346.875V15.3809V52.8809V81.0059H318.75H314.062V113.818H360.937H375V141.943H360.937H201.562V174.756H206.25H234.375V202.881V240.381V268.506H206.25H168.75H140.625V240.381V202.881V174.756H168.75H173.437V141.943H14.0623H-0.000213623V113.818H14.0623H60.9373V81.0059H56.2498H28.1248V52.8809V15.3809V-12.7441H56.2498H93.7498H121.875V15.3809V52.8809V81.0059H93.7498H89.0623ZM201.562 202.881H173.437H168.75V240.381H206.25V202.881H201.562ZM281.25 15.3809V52.8809H318.75V15.3809H281.25Z" fill="#CAEAF5"/>
</svg>
