<?xml version="1.0" encoding="UTF-8" standalone="no"?>
<!DOCTYPE svg PUBLIC "-//W3C//DTD SVG 1.1//EN" "http://www.w3.org/Graphics/SVG/1.1/DTD/svg11.dtd">
<svg width="100%" height="100%" viewBox="0 0 4548 3000" version="1.1" xmlns="http://www.w3.org/2000/svg" xmlns:xlink="http://www.w3.org/1999/xlink" xml:space="preserve" xmlns:serif="http://www.serif.com/" style="fill-rule:evenodd;clip-rule:evenodd;stroke-linejoin:round;stroke-miterlimit:2;">
    <g>
        <path d="M916.706,665.62L843.327,665.62L786.385,667.146L769.95,667.146L735.94,680.529L715.283,686.277L703.459,689.331L687.382,694.3L676.304,694.3L662.923,691.247L645.738,698.491L630.051,703.85L619.753,698.88L605.233,695.048L584.965,695.438L568.528,700.407L550.565,710.736L537.573,710.736L522.275,702.683L513.114,688.552L513.114,674.032L507.755,662.177L494.762,648.046L479.494,649.573L470.302,649.184L464.285,648.375L466.859,642.298L430.186,642.298C426.743,642.298 426.354,628.167 426.354,628.167L428.269,610.983L433.628,618.617L443.926,596.074L427.521,593.38L427.521,577.333L443.926,572.752L430.574,567.035L421.024,557.843L412.971,534.911L407.643,500.153L392.734,481.412L385.459,457.731L392.734,427.913L398.841,430.578L409.169,436.116L421.024,445.667L431.323,451.594L444.137,452.762L459.614,454.289L476.62,455.037L492.097,455.995L512.365,459.258L518.083,464.228L527.244,476.263L533.562,484.675L535.865,491.352L537.184,505.482L539.309,513.715L539.878,529.941L546.943,532.995L550.954,530.72L549.997,522.876C549.997,522.876 546.943,514.464 546.943,513.715C546.943,512.937 544.638,498.597 544.638,498.597L543.5,490.962L547.692,474.526C547.692,474.526 553.439,463.629 553.439,462.881C553.439,462.103 550.565,452.762 550.565,452.762C550.565,452.762 542.543,448.151 541.795,447.792C541.015,447.403 536.614,450.457 536.614,450.457L540.627,458.091L544.458,468.599L542.543,475.305L537.962,473.209L528.023,465.156L526.495,457.522L520.747,452.163L516.377,445.307L520.747,433.242L527.454,428.482L537.184,425.608L538.921,417.765L538.921,406.508L535.297,396.389L527.064,392.557L522.094,386.24L514.849,373.247L512.365,364.086L907.545,364.086L907.545,428.303L905.628,612.121L905.628,630.473L910.208,649.573L916.706,665.62Z" style="fill:rgb(204,204,204);fill-rule:nonzero;"/>
        <path d="M942.451,707.293L932.512,732.5L919.011,765.881L902.934,794.921L893.773,828.302L896.826,833.421L909.579,839.528L915.926,845.127L913.382,860.665L910.088,875.963L908.053,913.654L908.053,1045.53L416.205,1045.53L416.056,1045.14L406.864,1017.63L401.894,987.811L398.841,968.71L402.284,936.976L419.108,914.433L426.174,888.836L431.323,830.727L435.155,758.876L435.155,723.729L437.43,671.368L434.377,652.237L462.668,652.237L464.285,648.375L470.302,649.184L479.494,649.573L494.762,648.046L507.755,662.177L513.114,674.032L513.114,688.552L522.275,702.683L537.573,710.736L550.565,710.736L568.528,700.407L584.965,695.438L605.233,695.048L619.753,698.88L630.051,703.85L645.738,698.491L662.923,691.247L676.304,694.3L687.382,694.3L703.459,689.331L715.283,686.277L735.94,680.529L769.95,667.146L786.385,667.146L843.327,665.62L916.226,665.62L924.099,673.403L929.967,680.529L939.128,690.229L942.451,707.293Z" style="fill:rgb(204,204,204);fill-rule:nonzero;"/>
        <path d="M1313.92,812.375L1313.92,1045.53L908.053,1045.53L908.053,913.654L910.088,875.963L913.382,860.665L915.926,845.127L909.579,839.528L896.826,833.421L893.773,828.302L902.934,794.921L919.011,765.881L932.512,732.5L942.451,707.293L939.128,690.229L929.967,680.529L924.099,673.403L916.226,665.62L916.706,665.62L910.208,649.573L905.628,630.473L905.628,612.121L907.545,428.303L907.545,364.086L972.508,364.086L972.508,463.06L979.395,477.221L992.388,494.016L994.662,513.505L1000.41,528.415L1019.51,544.102L1040.53,566.256L1058.49,586.524L1077.59,602.182L1088.7,602.182L1090.23,619.755L1087.17,650.71L1087.92,675.17L1077.59,689.331L1077.59,703.072L1087.92,714.927L1095.55,713.4L1106.66,706.904L1111.24,700.796L1118.88,700.796L1126.51,707.682L1130.34,726.783L1132.65,738.997L1146.78,751.631L1149.44,772.647L1165.52,779.533L1175.46,792.885L1186.89,821.177L1200.66,817.344L1221.29,814.68L1242.34,810.489L1261.05,807.046L1275.57,809.71L1287.42,803.214L1290.87,792.885L1296.23,792.885L1307.3,800.16L1313.92,812.375Z" style="fill:rgb(204,204,204);fill-rule:nonzero;"/>
        <path d="M1792.42,364.086L1792.42,761.181L1313.92,761.181L1313.92,812.375L1307.3,800.16L1296.23,792.885L1290.87,792.885L1287.42,803.214L1275.57,809.71L1261.05,807.046L1242.34,810.489L1221.29,814.68L1200.66,817.344L1186.89,821.177L1175.46,792.885L1165.52,779.533L1149.44,772.647L1146.78,751.631L1132.65,738.997L1130.34,726.783L1126.51,707.682L1118.88,700.796L1111.24,700.796L1106.66,706.904L1095.55,713.4L1087.92,714.927L1077.59,703.072L1077.59,689.331L1087.92,675.17L1087.17,650.71L1090.23,619.755L1088.7,602.182L1077.59,602.182L1058.49,586.524L1040.53,566.256L1019.51,544.102L1000.41,528.415L994.662,513.505L992.388,494.016L979.395,477.221L972.508,463.06L972.508,364.086L1792.42,364.086Z" style="fill:rgb(204,204,204);fill-rule:nonzero;"/>
        <path d="M2299.98,672.625L1792.42,672.625L1792.42,364.086L2256.27,364.086L2260.22,407.646L2266.33,456.564L2273.97,482.041L2284.18,548.293L2284.18,584.488L2289.26,613.528L2298.93,642.059L2298.93,661.938L2299.98,672.625Z" style="fill:rgb(204,204,204);fill-rule:nonzero;"/>
        <path d="M2783.48,467.461L2775.45,473.958L2771.05,478.359L2764.2,482.19L2753.69,485.035L2736.47,490.004L2719.29,496.321L2708.78,502.429L2699.59,508.746L2686.99,523.056L2676.87,530.72L2661,545.809L2652.02,559.58L2637.68,564.549L2624.69,576.944L2617.41,585.925L2617.32,588.799L2617.32,588.829L2607.74,593.918L2596.28,601.553C2596.28,601.553 2593.46,612.24 2593.46,613.019C2593.46,613.767 2592.2,634.664 2592.2,635.442C2592.2,636.191 2590.68,653.285 2590.17,655.321C2589.66,657.357 2587.62,662.686 2586.34,663.464C2585.08,664.212 2571.58,669.841 2570.29,671.098C2569,672.386 2559.33,679.271 2559.09,681.038C2558.82,682.834 2550.17,698.102 2550.17,698.102C2550.17,698.102 2556.79,705.497 2557.03,706.515C2557.3,707.533 2563.91,717.741 2564.42,718.49C2564.93,719.268 2566.22,731.483 2566.22,731.483L2556.67,752.769L2558.58,779.144L2563.17,793.664L2590.29,805.519L2609.78,822.703L2622.38,845.247L2642.26,858.239L2656.03,872.4L2660.61,889.195L2665.97,907.158L2666.12,907.547L2304.47,907.547L2308.99,904.493L2308.99,887.309L2307.11,865.904L2308.99,825.757L2306.72,761.181L2308.99,742.051L2300.97,725.256L2280.73,707.682C2280.73,707.682 2289.5,697.354 2290.28,695.048C2291.03,692.773 2300.97,682.445 2300.97,682.445L2299.98,672.625L2298.93,661.938L2298.93,642.059L2289.26,613.528L2284.18,584.488L2284.18,548.293L2273.97,482.041L2266.33,456.564L2260.22,407.646L2256.27,364.086L2388.51,364.086L2395,372.109L2402.64,372.109L2414.11,375.163L2423.27,379.744L2430.93,386.24L2439.34,392.736L2457.66,396.958L2469.52,400.251L2476.14,401.927L2487.36,405.999L2489.52,410.849C2489.52,410.849 2498.71,411.986 2499.07,411.986C2499.46,411.986 2515.77,407.406 2515.77,407.406L2524.04,406.747L2529.51,408.783L2532.33,411.358L2538.2,413.004L2564.42,413.004L2564.69,419.621L2570.56,419.621L2578.43,423.453L2582.77,432.104L2588.64,439.769L2592.71,433.123L2599.84,431.865C2599.84,431.865 2610.05,433.123 2611.07,433.123C2612.08,433.123 2616.39,439.23 2616.39,439.23L2623.55,443.84L2635.76,455.037C2635.76,455.037 2644.18,458.869 2644.95,458.869C2645.7,458.869 2662.02,452.762 2662.02,452.762L2678.57,446.385L2691.06,442.044L2697.95,458.091L2733.87,458.091L2750.93,465.994L2761.38,466.773L2783.48,467.461Z" style="fill:rgb(204,204,204);fill-rule:nonzero;"/>
        <path d="M1863.91,1483.88L1863.1,1529.24L1856.48,1900.46L1619.17,1900.46L1619.17,1917.98L1507.05,1916.51L1507.05,1954.23L1449.48,1954.23L1449.48,1483.88L1863.91,1483.88Z" style="fill:rgb(204,204,204);fill-rule:nonzero;"/>
        <path d="M1449.48,1483.88L1449.48,1954.23L1311.88,1954.23L1062.2,1860.98L1064.66,1843.76L1072.38,1839.57L1082.05,1833.97C1082.05,1833.97 1081.03,1822.75 1081.03,1821.22C1081.03,1819.69 1074.93,1816.64 1074.93,1816.64L1067.8,1812.06L1065.26,1799.3L1069.84,1784.54L1079.51,1772.81L1080.02,1754.49L1080.52,1741.23L1091.24,1728.98L1104.98,1716.77L1094.3,1709.64C1094.3,1709.64 1086.66,1701.47 1085.11,1698.92C1083.58,1696.38 1085.11,1688.24 1085.11,1688.24L1073.4,1672.43L1073.4,1656.62L1070.08,1653.54L1061.93,1567.2L1108.55,1567.2L1110.1,1489.24L1110.13,1483.88L1449.48,1483.88Z" style="fill:rgb(204,204,204);fill-rule:nonzero;"/>
        <path d="M1449.48,1138.91L1449.48,1483.88L1110.13,1483.88L1113.16,1045.53L1313.92,1045.53L1313.92,1138.91L1449.48,1138.91Z" style="fill:rgb(204,204,204);fill-rule:nonzero;"/>
        <path d="M2508.38,1994.5L2497.15,2024.56L2492.57,2053.601L2487.48,2070.42L2486.73,2083.38L2444.94,2096.65L2426.32,2097.67L2426.32,2082.4L2418.95,2081.111L2397.04,2126.2L2383.03,2146.34L2353.72,2159.79L2335.19,2169.34L2328.48,2163.41L2303.28,2168.95L2310.91,2179.07L2310.16,2191.49L2290.07,2203.73L2284.18,2199.72L2268.88,2199.72L2257.59,2208.14L2268.88,2211.19L2260.64,2227.63L2244.81,2227.98L2254.54,2241.94L2245.94,2277.8L2244.93,2307.35L2259.71,2370.55L2244.42,2379.74L2228.61,2366.99L2190.92,2362.41L2151.16,2341.51L2127.21,2334.89L2102.24,2296.66L2102.24,2256.4L2083.379,2232.95L2048.24,2196.28L2027.34,2156.52L2011.02,2119.34L1992.67,2102.01L1967.19,2076.53L1924.41,2076.53C1924.41,2076.53 1908.6,2070.93 1905.04,2070.93C1901.48,2070.93 1905.04,2079.071 1905.04,2079.071L1883.13,2080.091L1872.92,2117.81L1857.65,2138.17L1841.33,2138.17L1802.59,2115.24L1766.43,2091.29L1751.64,2066.321L1744.52,2036.77L1722.09,2002.13L1698.14,1989.38L1675.72,1968.48L1651.77,1944.53L1623.24,1918.04L1619.17,1917.98L1619.17,1900.46L1856.48,1900.46L1863.1,1529.24L2068.11,1529.24L2068.11,1688.74L2076.26,1699.94L2093.59,1707.1L2111.4,1707.1L2123.65,1714.22L2136.37,1724.4L2179.69,1731.05C2179.69,1731.05 2194.99,1722.87 2195.5,1731.05C2196.01,1739.19 2206.19,1745.3 2206.19,1745.3L2240.35,1745.3C2240.35,1745.3 2249,1750.66 2250.79,1750.66C2252.56,1750.66 2264.8,1749.13 2264.8,1749.13C2264.8,1749.13 2276,1748.62 2277.29,1749.13C2278.55,1749.64 2292.05,1751.91 2292.05,1751.91C2292.05,1751.91 2299.95,1754.22 2300.46,1755.75C2300.97,1757.27 2307.35,1760.59 2307.35,1760.59L2317.53,1762.12C2317.53,1762.12 2333.6,1753.44 2334.86,1753.44C2336.15,1753.44 2358.3,1747.33 2358.3,1747.33L2378.18,1747.09L2391.17,1747.09C2391.95,1747.09 2402.37,1748.35 2402.37,1748.35L2416.41,1757.54L2435.75,1767.99L2442.64,1768.86L2442.64,1769.25L2455.9,1773.83L2467.6,1773.83L2473.2,1790.65L2473.2,1839.06L2477.81,1887.47L2489.01,1926.21L2496.13,1943.01L2502.27,1964.92L2508.38,1994.5Z" style="fill:rgb(204,204,204);fill-rule:nonzero;"/>
        <path d="M2785.06,2085.96L2770.04,2092.071L2776.17,2102.75L2776.17,2109.64L2760.87,2106.59L2738.96,2097.16L2746.86,2111.68L2748.9,2125.69L2732.85,2131.05L2729.53,2119.85L2706.6,2121.62L2692.08,2131.32L2685.7,2123.65L2681.9,2125.69L2669.41,2122.39L2655.13,2113.47L2664.56,2110.66L2661.75,2102.75L2647.74,2099.97L2643.16,2083.65L2621,2069.13L2612.32,2068.89L2605.71,2079.071L2608.01,2091.8L2600.62,2094.611L2587.86,2094.88L2569,2090.78L2542,2080.091L2497.15,2080.091L2486.73,2083.38L2487.48,2070.42L2492.57,2053.601L2497.15,2024.56L2508.38,1994.5L2502.27,1964.92L2496.13,1943.01L2489.01,1926.21L2477.81,1887.47L2473.2,1839.06L2473.2,1818.67L2671.27,1818.67L2669.41,1824.27L2678.19,1844.66L2683.66,1865.05L2683.66,1877.8C2683.66,1879.33 2676.03,1891.54 2676.03,1891.54L2671.45,1905.82C2671.45,1905.82 2663.79,1916 2663.28,1917.53C2662.77,1919.06 2653.61,1926.72 2653.61,1926.72L2643.43,1937.41C2643.43,1937.41 2639.33,1955.76 2638.82,1958.81C2638.31,1961.87 2638.31,1977.17 2638.31,1977.17L2638.31,1981.75L2764.71,1981.75C2764.71,1981.75 2760.6,1995.01 2760.6,1996.03C2760.6,1997.04 2759.59,2008.75 2759.59,2008.75L2765.21,2018.96L2768,2027.61L2774.88,2036.53L2780.48,2041.35L2787.43,2043.81L2784.05,2044.94L2768.27,2045.69L2750.7,2037.04L2736.15,2035.24L2724.68,2044.17L2723.93,2059.7L2745.85,2059.7L2749.14,2055.121L2763.18,2055.121L2761.38,2060.21L2773.87,2071.95L2786.11,2063.03L2788.66,2071.44L2785.06,2085.96Z" style="fill:rgb(204,204,204);fill-rule:nonzero;"/>
        <path d="M2874.76,1657.4L2874.76,1696.89L2867.12,1776.88L2857.96,1858.94L2852.33,1933.34L2856.41,1979.2L2855.39,2016.38L2857.12,2039.29L2840.87,2033.21L2828.89,2028.87L2815.66,2034.5L2787.43,2043.81L2780.48,2041.35L2774.88,2036.53L2768,2027.61L2765.21,2018.96L2759.59,2008.75C2759.59,2008.75 2760.6,1997.04 2760.6,1996.03C2760.6,1995.01 2764.71,1981.75 2764.71,1981.75L2638.31,1981.75L2638.31,1977.17C2638.31,1977.17 2638.31,1961.87 2638.82,1958.81C2639.33,1955.76 2643.43,1937.41 2643.43,1937.41L2653.61,1926.72C2653.61,1926.72 2662.77,1919.06 2663.28,1917.53C2663.79,1916 2671.45,1905.82 2671.45,1905.82L2676.03,1891.54C2676.03,1891.54 2683.66,1879.33 2683.66,1877.8L2683.66,1865.05L2678.19,1844.66L2669.41,1824.27L2671.27,1818.67L2672.47,1815.11C2672.47,1815.11 2672.98,1800.83 2672.98,1798.8C2672.98,1796.76 2669.41,1783.53 2669.41,1783.53L2667.89,1770.26C2667.89,1770.26 2676.03,1756.01 2678.19,1754.49C2680.37,1752.93 2684.17,1736.14 2684.17,1734.1C2684.17,1732.06 2686.21,1723.89 2686.72,1720.84C2687.23,1717.78 2694.89,1715.75 2695.91,1714.22C2696.93,1712.69 2706.09,1699.94 2706.09,1699.94L2713.72,1683.66C2713.72,1683.66 2715.79,1678.03 2715.79,1675.99C2715.79,1673.96 2720.37,1665.3 2720.37,1665.3L2733.09,1658.69C2733.09,1658.69 2733.45,1658.21 2733.99,1657.4L2874.76,1657.4Z" style="fill:rgb(204,204,204);fill-rule:nonzero;"/>
        <path d="M3089.56,1981.24L2913.49,1981.24L2921.13,2010.28L2927.29,2034.26L2926.49,2034.23L2908.4,2040.33L2895.65,2033.48L2882.66,2014.86L2877.81,2036.02L2857.18,2039.32L2857.12,2039.29L2855.38,2016.38L2856.4,1979.2L2852.33,1933.34L2857.96,1858.94L2867.12,1776.88L2874.75,1696.89L2874.75,1657.4L3047.53,1657.4L3055.16,1709.64L3066.86,1759.07L3081.65,1836.01L3087.76,1867.08L3090.82,1890.02C3090.82,1890.02 3081.65,1903.79 3081.65,1905.82C3081.65,1907.86 3083.18,1929.26 3083.18,1929.26L3083.69,1956.27L3089.56,1981.24Z" style="fill:rgb(204,204,204);fill-rule:nonzero;"/>
        <path d="M3428.15,2318.58L3424.35,2364.95L3417.2,2389.92L3407.77,2406.98L3405.22,2425.84L3395.79,2431.44L3381.27,2431.44L3369.3,2436.02L3361.93,2436.02L3361.42,2429.67L3366.75,2419.23L3359.12,2412.85L3351.72,2409.02L3337.71,2387.1L3323.94,2381L3312.74,2371.06L3308.4,2351.96L3291.61,2331.06L3282.69,2310.16L3271.22,2303.79L3263.32,2291.3L3255.41,2272.2L3251.07,2249.27L3264.84,2231.19L3255.68,2224.57L3250.56,2234.24L3245.98,2234.48L3242.42,2212.33L3243.95,2187.87L3247.51,2160.08L3242.93,2137.42C3242.93,2137.42 3232.24,2124.67 3230.95,2124.67C3229.7,2124.67 3218.74,2118.32 3218.74,2118.32L3202.42,2098.95L3185.36,2074.73L3163.17,2056.14L3143.57,2054.611L3123.18,2070.93L3101.26,2082.4L3067.13,2084.94L3060.25,2066.831L3030.43,2043.15L3004.44,2026.59L2981,2027.61L2960.11,2026.83L2947.62,2023.54L2940.5,2034.5L2927.29,2034.26L2921.13,2010.28L2913.49,1981.24L3089.56,1981.24L3095.39,2006.21L3264.57,2013.6L3277.84,2016.38L3282.42,2030.16L3292.63,2030.16L3295.68,1999.59L3332.95,2003.51L3332.62,2014.35L3339.75,2051.8L3356.06,2105.06L3375.67,2149.64L3394.53,2176.67L3392.23,2200.35L3395.28,2215.14L3409.32,2251.81L3420.25,2280.11L3428.15,2318.58Z" style="fill:rgb(204,204,204);fill-rule:nonzero;"/>
        <path d="M3370.67,1896.81L3368.79,1900.2L3353.25,1922.38L3337.47,1960.07L3333.64,1981.75L3332.95,2003.51L3295.68,1999.59L3292.63,2030.16L3282.42,2030.16L3277.84,2016.38L3264.57,2013.6L3095.39,2006.21L3089.56,1981.24L3083.69,1956.27L3083.18,1929.26C3083.18,1929.26 3081.65,1907.86 3081.65,1905.82C3081.65,1903.79 3090.82,1890.02 3090.82,1890.02L3087.76,1867.08L3081.65,1836.01L3066.86,1759.07L3055.16,1709.64L3047.53,1657.4L3224.58,1657.4L3207,1672.43L3207,1683.66L3231.46,1698.41L3247.27,1724.4L3262.54,1750.39L3290.08,1769.76L3317.59,1811.04L3338.49,1845.68L3349.18,1871.66L3353.76,1892.05L3370.67,1896.81Z" style="fill:rgb(204,204,204);fill-rule:nonzero;"/>
        <path d="M3723.07,1596.15L3713.73,1609.53L3697.29,1623.87L3686.01,1625.31L3672.27,1625.82L3666.13,1632.16L3664.6,1643.9L3657.99,1651.8L3648.56,1650L3641.67,1653.84L3650.08,1663.78L3660.53,1659.94L3670.2,1657.4L3683.97,1658.66L3682.69,1668.09L3669.18,1680.57L3646.76,1683.39L3625.11,1688.98L3596.82,1702.75L3577.21,1723.14L3569.82,1728.23L3569.82,1739.7L3566.77,1751.91L3558.62,1752.42L3539.49,1751.91L3529.31,1754.28L3512.76,1730.54L3482.19,1695.36L3457.22,1675.48L3431.72,1671.92L3395.55,1670.39C3395.55,1670.39 3376.69,1665.3 3375.16,1664.79C3373.64,1664.29 3364.48,1646.44 3364.48,1646.44L3337.98,1639.83L3307.38,1639.83L3272.75,1637.28L3235.03,1648.48L3224.58,1657.4L3135.69,1657.4C3137.1,1649.41 3138.72,1639.92 3138.72,1637.28C3138.72,1632.43 3146.38,1637.28 3146.38,1637.28C3146.38,1637.28 3159.37,1630.63 3159.37,1628.36C3159.37,1626.05 3164.7,1616.12 3164.7,1616.12L3192.99,1606.18L3222.81,1593.96C3222.81,1593.96 3231.22,1585.55 3231.22,1583.24C3231.22,1580.97 3237.72,1573.3 3237.72,1573.3L3255.68,1573.3L3259.48,1564.92L3277.84,1564.92L3291.61,1553.46L3313.76,1535.1L3316.7,1522.2L3708.85,1526.42C3709.69,1529.5 3710.47,1532.26 3710.56,1532.53C3710.77,1533.1 3712.47,1546.36 3712.47,1546.36L3716.4,1553.9L3711.99,1566.24L3703.88,1562.53L3694.9,1562.14L3680.29,1565.28L3662.42,1570.25L3661.07,1578.36L3668.61,1576.57L3682.48,1572.35L3696.43,1573.6L3698.04,1579.05L3702.74,1599.2L3705.8,1593.48L3708.76,1581.81L3718.01,1577.62L3721.75,1584.5L3723.07,1596.15Z" style="fill:rgb(204,204,204);fill-rule:nonzero;"/>
        <path d="M2442.64,1585.28L2442.64,1768.86L2435.75,1767.99L2416.41,1757.54L2402.37,1748.35C2402.37,1748.35 2391.95,1747.09 2391.17,1747.09L2378.18,1747.09L2358.3,1747.33C2358.3,1747.33 2336.15,1753.44 2334.86,1753.44C2333.6,1753.44 2317.53,1762.12 2317.53,1762.12L2307.35,1760.59C2307.35,1760.59 2300.97,1757.27 2300.46,1755.75C2299.95,1754.22 2292.05,1751.91 2292.05,1751.91C2292.05,1751.91 2278.55,1749.64 2277.29,1749.13C2276,1748.62 2264.8,1749.13 2264.8,1749.13C2264.8,1749.13 2252.56,1750.66 2250.79,1750.66C2249,1750.66 2240.35,1745.3 2240.35,1745.3L2206.19,1745.3C2206.19,1745.3 2196.01,1739.19 2195.5,1731.05C2194.99,1722.87 2179.69,1731.05 2179.69,1731.05L2136.37,1724.4L2123.65,1714.22L2111.4,1707.1L2093.59,1707.1L2076.26,1699.94L2068.11,1688.74L2068.11,1529.24L1863.1,1529.24L1863.91,1483.88L2434.19,1483.88L2433.98,1498.67L2436.02,1529.75L2436.02,1550.64L2442.64,1585.28Z" style="fill:rgb(204,204,204);fill-rule:nonzero;"/>
        <path d="M2956.82,742.949L2950.44,754.176L2944.06,768.426L2933.11,789.083L2928.53,814.291L2918.35,849.707L2910.95,868.568L2899.73,898.625L2892.84,923.085L2893.35,946.795L2896.16,959.279L2901.76,969.458L2904.58,978.38L2900.5,984.757L2900.29,998.887L2707.41,998.887C2706.21,997.54 2705.43,996.552 2705.34,996.223C2704.95,994.696 2679.71,979.009 2679.71,979.009L2670.94,958.771L2670.94,919.013L2666.12,907.547L2665.97,907.158L2660.61,889.195L2656.03,872.4L2642.26,858.239L2622.38,845.247L2609.78,822.703L2590.29,805.519L2563.17,793.664L2558.58,779.144L2556.67,752.769L2566.22,731.483C2566.22,731.483 2564.93,719.268 2564.42,718.49C2563.91,717.741 2557.3,707.533 2557.03,706.515C2556.79,705.497 2550.17,698.102 2550.17,698.102C2550.17,698.102 2558.82,682.834 2559.09,681.038C2559.33,679.271 2569,672.386 2570.29,671.098C2571.58,669.841 2585.08,664.212 2586.34,663.464C2587.62,662.686 2589.66,657.357 2590.17,655.321C2590.68,653.285 2592.2,636.191 2592.2,635.442C2592.2,634.664 2593.46,613.767 2593.46,613.019C2593.46,612.24 2596.28,601.553 2596.28,601.553L2607.74,593.918L2617.32,588.829L2616.84,603.319L2619.9,602.96L2624.51,599.307L2633.67,597.601L2643.04,594.547L2650.49,590.326L2660.43,586.314L2669.2,580.985C2669.2,580.985 2681.45,580.776 2682.2,580.776L2692.53,580.776C2692.53,580.776 2699.8,582.303 2700.73,582.303C2701.69,582.303 2696.15,586.704 2696.15,586.704L2695.19,597.392L2695.19,605.804C2695.19,605.804 2703.81,604.277 2704.38,604.277C2704.95,604.277 2710.49,606.373 2711.84,606.762C2713.15,607.151 2715.64,611.731 2715.64,611.731L2721.18,614.426L2727.73,612.061L2732.85,619.904C2732.85,619.904 2741.5,628.048 2742.28,628.826C2743.03,629.575 2760.87,640.262 2762.16,640.532C2763.42,640.801 2779.23,644.364 2779.23,644.364L2806.23,651.729L2824.58,656.848L2848.02,662.446L2867.12,668.314L2879.34,676.188L2884.46,685.888L2895.15,694.031L2898.71,707.023L2897.18,721.035L2905.32,741.931L2907.12,750.104L2911.97,753.667L2920.05,755.972L2912.72,763.097L2897.45,772.767L2890.8,788.814L2890.57,798.244L2897.18,798.484L2903.8,794.682L2913.74,782.437L2922.42,776.839L2932.6,763.606L2938.2,755.942C2938.2,755.942 2943.05,749.056 2944.33,748.547C2945.59,748.039 2950.17,741.422 2950.17,741.422L2955.8,739.896L2956.82,742.949Z" style="fill:rgb(204,204,204);fill-rule:nonzero;"/>
        <path d="M2733.24,1034.06L2733.24,1048.58C2733.24,1048.58 2728.63,1073.04 2727.49,1073.79C2726.36,1074.57 2708.78,1087.17 2708.78,1087.17C2708.78,1087.17 2685.46,1095.2 2684.32,1095.98C2683.16,1096.72 2673.22,1112.02 2673.22,1113.16C2673.22,1114.33 2687.74,1130.37 2687.74,1130.37L2680.88,1149.09L2664.06,1171.27C2664.06,1171.27 2649.15,1182.74 2649.15,1186.54L2641.87,1179.68L2623.91,1171.63L2354.68,1171.63L2349.92,1160.82C2349.92,1160.82 2349.38,1132.29 2349.89,1128.19C2350.4,1124.12 2342.25,1095.59 2342.25,1095.59L2321.87,1033.41L2313.72,1009.96L2305.55,996.732C2305.55,996.732 2305.07,995.415 2304.41,993.528C2302.77,988.978 2299.95,980.984 2299.95,979.907C2299.95,978.38 2304.02,961.555 2304.02,959.01C2304.02,956.465 2308.99,939.64 2308.99,939.64L2299.44,924.372L2299.95,910.601L2304.47,907.547L2666.12,907.547L2670.94,919.013L2670.94,958.771L2679.71,979.009C2679.71,979.009 2704.95,994.696 2705.34,996.223C2705.43,996.552 2706.21,997.54 2707.41,998.887C2711.72,1003.77 2721.39,1013.41 2721.39,1013.41L2733.24,1034.06Z" style="fill:rgb(204,204,204);fill-rule:nonzero;"/>
        <path d="M2983.55,691.995L2992.23,687.923L3008.78,671.098L3018.72,673.134L3029.68,674.152L3037.82,667.296L3050.58,662.955C3050.58,662.955 3058.21,660.141 3058.96,659.901C3059.74,659.632 3067.64,659.632 3067.64,659.632L3083.18,666.518L3094.89,672.116L3100.01,680.798L3102.79,683.852L3106.53,686.546L3109.02,688.372L3109.38,688.642L3112.73,689.331L3113.39,684.541L3112.64,676.816L3113.3,670.2L3113.87,666.188L3127.52,668.044L3152.22,670.859L3160.9,669.063L3154.76,661.428L3144.58,648.675L3149.67,641.041L3149.16,617.09L3126.5,619.396L3114.53,623.198L3100.75,623.198L3093.12,618.108L3090.82,610.474L3090.57,601.792L3093.63,595.685C3093.63,595.685 3084.2,594.907 3083.18,594.667C3082.16,594.397 3075.55,595.954 3074.53,596.463C3073.51,596.972 3066.36,597.481 3064.83,597.721C3063.3,597.99 3051.84,598.738 3051.84,598.738L3044.95,602.81L3036.03,604.098L3019.47,604.337L3013.1,604.606L3004.83,610.713L2994.77,616.582L2988.79,620.414L2981.51,622.809L2953.76,621.431L2941.39,621.431L2933.1,616.971L2925.86,612.63L2919.87,605.864L2914.75,594.667L2907.24,588.051L2899.33,580.147L2889.78,578.74L2880.17,576.764L2868.32,576.584L2862.21,579.638L2857.42,579.249L2860.86,568.172L2870.8,556.316L2878.82,545.629L2888.58,540.839L2894.9,536.079L2902.72,531.678L2902.54,526.708L2893.17,523.655L2884.75,523.655L2878.65,526.139L2867.57,529.373L2857.42,534.342L2850.35,540.839L2833.35,560.329L2822.84,567.962L2814.43,572.184L2795.9,578.86L2785.78,582.512L2772.22,590.715L2760.75,595.116L2750.6,601.792L2741.05,605.625L2732.64,609.636L2728.06,611.941L2727.73,612.061L2732.85,619.904C2732.85,619.904 2741.5,628.048 2742.28,628.826C2743.03,629.575 2760.87,640.262 2762.16,640.532C2763.41,640.801 2779.22,644.364 2779.22,644.364L2806.23,651.729L2824.58,656.848L2848.02,662.446L2867.12,668.314L2879.33,676.188L2884.45,685.888L2895.14,694.031L2898.7,707.023L2897.18,721.035L2905.32,741.931L2907.12,750.104L2911.97,753.667L2920.05,755.972L2921.64,754.415L2928.01,739.896L2939.99,712.382L2947.89,703.461L2961.12,700.407L2968.52,696.845L2972.86,690.977L2983.55,691.995Z" style="fill:rgb(204,204,204);fill-rule:nonzero;"/>
        <path d="M3261.79,939.401L3260.51,969.219L3256.7,988.828L3244.73,999.007L3229.19,1012.78L3221.02,1019.39L3214.64,1035.2L3211.35,1048.7L3199.1,1061.19L3198.48,1069.6L2970.35,1069.6C2971.85,1067.47 2976.22,1061.22 2976.43,1060.17C2976.67,1058.88 2983.04,1047.69 2983.04,1047.69L2994.51,1033.41L3005.23,1015.32L3005.23,949.34L3000.11,937.096C3000.11,937.096 2995.53,924.612 2995.53,923.863C2995.53,923.085 2992.23,911.11 2992.23,911.11L2990.95,888.447L2993.76,870.604L3000.89,853.54L3007.26,840.277L3012.35,831.864C3012.35,831.864 3011.33,817.105 3011.33,815.817C3011.33,814.56 3006.48,809.95 3006.48,809.95C3006.48,809.95 3006.99,801.058 3006.99,800.041C3006.99,799.022 3011.84,794.412 3011.84,794.412L3015.41,787.796L3022.8,778.365L3027.65,773.276L3038.1,772.498L3040.88,765.881L3045.46,761.301L3045.97,781.688L3052.35,783.215L3059.23,777.617L3065.34,771.749L3066.12,748.188L3068.55,744.236L3075.04,743.338C3075.04,743.338 3076.93,740.913 3076.93,740.524C3076.93,740.165 3082.56,737.351 3082.56,737.351L3088.03,732.89L3092.73,730.734C3092.73,730.734 3094.14,726.513 3094.02,726.124C3093.87,725.765 3090.31,723.729 3090.31,723.729L3090.31,699.12L3097.32,691.755L3107.01,691.097L3108.84,691.456L3112.19,692.115L3115.55,692.773L3127.76,698.88L3148.42,709.568L3174.41,723.579L3195.03,737.351L3205.75,755.193L3208.03,760.792L3199.61,761.81L3198.09,766.66L3203.18,773.006L3207.01,782.197L3209.04,789.832L3204.7,790.61L3203.44,803.094L3200.9,819.38L3193.27,845.127L3181.29,858.359L3170.06,869.826L3166.74,884.375L3173.63,895.063L3181.29,898.386L3186.89,895.333L3190.45,884.884L3198.36,874.436L3208.53,868.299L3217.96,860.934L3225.6,855.306L3238.59,860.155L3247.51,867.281L3252.36,876.472L3256.44,884.884L3256.7,897.608L3258.98,930.479L3261.79,939.401Z" style="fill:rgb(204,204,204);fill-rule:nonzero;"/>
        <path d="M3394.42,1052.96L3394.42,1164.32L3392.5,1166.66L3386.75,1177.77L3389.06,1190.37L3384.09,1206.81L3379.12,1225.52L3371.49,1252.28L3355.05,1269.11C3355.05,1269.11 3336.31,1280.57 3334.78,1281.71C3333.26,1282.85 3310.32,1292.79 3310.32,1292.79L3287.39,1310.9L3281.67,1337.9L3274.4,1358.14L3259.88,1361.58L3250.72,1361.58L3241.53,1352.78L3233.89,1338.26L3226.62,1343.62L3207.91,1343.62L3189.94,1341.35L3170.84,1341.35L3153.63,1334.07L3139.11,1322.22L3124.59,1306.95L3105.85,1304.7L3105.85,1069.6L3198.48,1069.6L3198.09,1074.69L3206.5,1080.56L3217.22,1084.36L3224.07,1088.7L3239.37,1093.28L3248.8,1099.66L3257.45,1101.45L3276.82,1101.19L3281.91,1095.08L3299.76,1094.81L3307.15,1090.23L3321.67,1090.23L3329.3,1086.67L3337.99,1078.52C3337.99,1078.52 3348.41,1069.09 3348.41,1068.31C3348.41,1067.56 3365.74,1062.48 3365.74,1062.48L3380.77,1056.34L3394.42,1052.96Z" style="fill:rgb(204,204,204);fill-rule:nonzero;"/>
        <path d="M4315.33,770.971L4315.33,784.742L4296.5,801.298L4282.73,801.298L4277.13,809.202L4266.68,809.202L4259.05,814.8L4253.42,822.194L4232.52,832.373L4209.59,838.75L4186.15,816.835L4176.99,842.073L4175.73,856.593L4162.98,865.245L4151.509,863.988L4134.45,881.052L4120.17,884.375L4109.72,879.256L4098.759,887.16L4091.91,902.966L4085.77,916.199L4074.06,946.795L4069.03,952.664L4062.48,941.557C4062.48,941.557 4054.42,924.761 4054.42,920.54C4054.42,916.349 4042.96,907.937 4043.35,906.799C4043.67,905.811 4038.32,774.114 4036.61,732.65L4046.04,735.195L4051.58,742.649C4051.58,742.649 4051.37,735.195 4051.37,734.596C4051.37,734.027 4057.12,714.927 4057.12,714.927L4067.06,705.557L4086.55,683.343L4093.16,670.589L4088.58,655.83L4094.18,643.076L4098.25,632.389L4101.81,615.055L4108.97,593.649L4127.319,573.262L4146.15,544.222L4156.359,526.888L4177.259,523.834L4177.259,540.15L4182.35,549.82L4190.49,547.785L4230.76,530.45L4258.78,558.472L4256.74,698.611L4280.69,703.222L4280.69,714.418L4286.29,747.529L4301.59,750.583L4315.33,770.971Z" style="fill:rgb(204,204,204);fill-rule:nonzero;"/>
        <path d="M4112.02,1076.73L4105.65,1080.29C4105.65,1080.29 4089.33,1081.31 4088.07,1081.31C4086.79,1081.31 4076.34,1088.46 4076.34,1088.46C4076.34,1088.46 4064.12,1086.67 4063.34,1086.67C4062.75,1086.67 4060.11,1082.08 4059,1080.14L4057.3,1069.21L4046.4,1040.56L3873.87,1040.56L3876.59,1020.68L3881.68,1003.35L3888.33,979.398L3888.24,975.925L3944.13,977.781L4017.36,980.176L4031.88,975.566L4042.21,966.016L4059.24,966.016L4055.2,976.583L4071.52,984.487L4063.85,991.373L4041.94,997.989L4039.39,1019.39L4048.58,1019.39L4059.27,1026.28L4071.76,1049.72L4084.75,1069.09L4102.83,1069.33L4112.02,1076.73Z" style="fill:rgb(204,204,204);fill-rule:nonzero;"/>
        <path d="M4059,1080.14C4058.7,1079.6 4058.52,1079.27 4058.52,1079.27L4054.18,1083.61L4047.06,1091.52L4034.07,1107.29L4028.44,1093.55L4023.35,1086.43L4017.48,1089.72L4017.36,1089.99L4017.36,1040.56L4046.4,1040.56L4057.3,1069.21L4059,1080.14Z" style="fill:rgb(204,204,204);fill-rule:nonzero;"/>
        <path d="M3708.86,1526.42L3316.7,1522.2L3187.7,1520.79C3193.33,1519.36 3197.82,1518.07 3198.36,1517.53C3199.88,1516 3222.82,1503.01 3222.82,1503.01L3236.56,1486.19L3261.79,1462.12L3286.64,1448.34L3290.53,1443.64L3295.05,1447.57L3309.57,1465.17L3319.87,1468.97L3336.31,1464.39C3336.31,1464.39 3350.47,1463.25 3352,1463.25C3353.52,1463.25 3365.74,1462.47 3365.74,1462.47L3374.15,1450.26L3391.36,1450.26C3392.5,1450.26 3403.19,1437.66 3403.19,1437.66L3416.57,1409.36L3442.56,1365.81L3454.02,1352.78L3472.38,1358.14C3472.38,1358.14 3478.87,1364.25 3480.01,1363.89C3481.18,1363.5 3491.09,1340.96 3491.09,1340.96L3506,1329.88L3518.99,1321.47L3531.98,1303.86L3541.17,1292.04L3544.23,1279.79L3554.92,1285.9L3570.99,1297.01L3582.46,1293.18L3587.25,1284.08L3596.59,1292.79L3599.07,1303.12L3611.86,1314.19L3623.71,1317.64L3632.51,1324.52L3632.51,1334.07L3626.17,1348.8L3623.59,1348.08L3616.71,1357.75L3615.18,1370L3621.29,1379.43L3635.3,1384.25L3645.51,1389.61L3659.01,1392.42L3670.47,1398.8L3680.41,1406.16L3681.94,1424.27L3680.29,1437.06L3661.73,1431.97L3675.68,1445.08L3679.34,1454.27L3677.6,1473.37L3676.46,1485.23L3665.57,1477.56L3654.49,1472.8L3652.18,1477.56L3667.48,1494.6L3678.38,1497.65L3701.49,1496.12L3704.75,1501.27L3706.37,1517.71C3706.37,1517.71 3707.69,1522.35 3708.86,1526.42Z" style="fill:rgb(204,204,204);fill-rule:nonzero;"/>
        <path d="M3721.93,1408.2L3715.83,1421.19L3709.96,1437L3704.87,1459.42L3705.89,1468.85L3716.57,1456.88L3726.51,1442.6L3732.89,1425.53L3739.78,1408.98L3740.2,1408.38L3721.93,1408.2Z" style="fill:rgb(204,204,204);fill-rule:nonzero;"/>
        <path d="M3763.73,1364.13L3755.83,1382.99L3747.92,1397L3740.2,1408.38L3721.94,1408.2L3714.03,1409.21L3709.72,1405.92C3709.72,1405.92 3707.66,1392.66 3707.15,1391.64C3706.64,1390.62 3704.87,1379.67 3704.87,1379.67L3697.24,1378.65L3689.84,1375.09L3687.75,1370.77L3685.5,1366.16L3682.45,1355.99L3689.34,1354.19L3702.57,1353.17L3711.76,1349.1L3712,1339.67L3707.93,1338.14L3704.6,1346.79L3696.73,1346.29L3688.32,1339.94L3685.77,1330.51L3686.01,1310.69L3687.81,1286.92L3678.38,1292.55L3668.68,1308.08L3666.4,1328.47L3666.64,1344.01L3672.78,1365.92L3679.91,1374.58L3681.43,1389.1L3674.55,1389.61L3660.03,1384.76L3648.56,1380.18L3639.13,1374.07L3626.65,1362.09L3628.95,1349.61L3626.17,1348.8L3632.51,1334.07L3632.51,1324.52L3623.71,1317.64L3611.86,1314.19L3599.07,1303.12L3596.59,1292.79L3587.25,1284.08L3582.46,1273.69L3571.35,1259.41L3540.78,1259.41L3530.46,1267.58L3515.19,1265.66L3504.08,1273.69L3492.64,1273.69L3479.62,1284.76L3464.35,1290L3464.35,1251.14L3717.09,1251.14L3717.12,1251.11L3718.91,1339.52L3718.91,1339.55L3719.39,1364.13L3763.73,1364.13Z" style="fill:rgb(204,204,204);fill-rule:nonzero;"/>
        <path d="M3766.27,1337.63L3764.48,1362.36L3763.73,1364.13L3719.39,1364.13L3718.91,1339.55L3718.91,1339.52L3717.11,1251.11L3727.29,1240.31L3735.79,1238.39L3734.18,1261.44L3734.18,1276.23L3736.96,1280.81L3734.93,1282.85L3739.27,1301.44L3755.31,1319.55L3766.27,1337.63Z" style="fill:rgb(204,204,204);fill-rule:nonzero;"/>
        <path d="M3770.62,1124.63L3759.39,1153.16L3763.97,1175.58L3777.74,1192.41L3783.85,1203.09L3779.78,1213.81L3765.5,1229.62L3747.68,1235.73L3735.8,1238.39L3727.3,1240.31L3717.12,1251.11L3717.09,1251.14L3394.42,1251.14L3394.42,1052.96L3398.1,1052.03L3408.28,1045.14C3408.28,1045.14 3417.71,1042.33 3418.49,1041.82C3419.24,1041.31 3420.26,1034.93 3420.26,1034.93L3430.97,1031.13L3443.46,1024.75C3443.46,1024.75 3443.73,1024.6 3444.21,1024.33L3444.21,1046.16L3745.89,1046.16L3757.35,1061.97L3764.48,1076.22C3764.48,1076.22 3767.53,1084.9 3769.09,1085.92C3770.62,1086.93 3777.23,1095.59 3777.23,1095.59L3790.14,1103.04L3789.45,1103.73L3780.29,1113.43L3770.62,1124.63Z" style="fill:rgb(204,204,204);fill-rule:nonzero;"/>
        <path d="M4017.36,1040.56L4017.36,1089.99L4009.61,1106.54L3997.36,1109.33C3997.36,1109.33 3987.42,1114.69 3964.49,1112.92C3962.96,1112.86 3929.34,1115.47 3929.34,1115.47L3896.98,1119.78L3875.07,1127.44L3858.27,1138.7L3857.22,1139.42L3857.22,1131.24L3869.98,1116.99L3875.07,1100.17L3872.52,1050.23L3873.87,1040.56L4017.36,1040.56Z" style="fill:rgb(204,204,204);fill-rule:nonzero;"/>
        <path d="M4004.28,764.415L4002.84,783.335L3995.95,810.848C3995.95,810.848 3981.43,820.788 3980.69,822.314C3979.91,823.841 3971.49,834.559 3970.75,837.612C3969.97,840.666 3965.39,865.515 3965.39,867.041C3965.39,868.568 3959.28,880.423 3957.36,883.088C3955.45,885.752 3947.43,900.302 3946.65,902.578C3945.9,904.883 3944.37,915.181 3944.37,917.875C3944.37,920.54 3945.51,935.449 3944.37,942.724C3943.59,947.634 3943.86,966.315 3944.13,977.781L3888.24,975.925L3882.01,764.415L4004.28,764.415Z" style="fill:rgb(204,204,204);fill-rule:nonzero;"/>
        <path d="M4069.03,952.664L4060.56,962.573L4059.24,966.016L4042.21,966.016L4031.88,975.566L4017.36,980.176L3944.13,977.781C3943.86,966.315 3943.59,947.634 3944.37,942.724C3945.51,935.449 3944.37,920.54 3944.37,917.875C3944.37,915.181 3945.9,904.883 3946.65,902.578C3947.43,900.302 3955.45,885.752 3957.36,883.088C3959.28,880.423 3965.39,868.568 3965.39,867.041C3965.39,865.515 3969.97,840.666 3970.75,837.612C3971.49,834.559 3979.91,823.841 3980.69,822.314C3981.43,820.788 3995.95,810.848 3995.95,810.848L4002.84,783.335L4004.28,764.415L4007.63,764.415L4016.01,746.841L4021.37,736.512L4031.13,737.859L4036.1,732.5L4036.61,732.65C4038.32,774.114 4043.67,905.811 4043.35,906.799C4042.96,907.937 4054.42,916.349 4054.42,920.54C4054.42,924.761 4062.48,941.557 4062.48,941.557L4069.03,952.664Z" style="fill:rgb(204,204,204);fill-rule:nonzero;"/>
        <path d="M4078.85,1106.24L4065.38,1107.14L4059.36,1107.14L4057.3,1104.57C4057.3,1103.79 4063.22,1101.69 4063.22,1101.69L4072.78,1101.69L4077.09,1103.19L4078.85,1106.24Z" style="fill:rgb(204,204,204);fill-rule:nonzero;"/>
        <path d="M1069.84,1784.54L1065.26,1799.3L1067.8,1812.06L1074.93,1816.64C1074.93,1816.64 1081.03,1819.69 1081.03,1821.22C1081.03,1822.75 1082.05,1833.97 1082.05,1833.97L1072.38,1839.57L1064.66,1843.76L1064.75,1843.13L894.91,1855.74L892.245,1840.86L885.36,1807.6L837.579,1762.87L817.342,1759.07L810.067,1737.66L782.943,1734.97L726.39,1704.4L677.083,1704.4L664.838,1695.42L663.521,1647.64L649.57,1636.95L646.306,1620.52L617.656,1601.6L603.705,1575.22L572.75,1536.63L582.689,1515.22L582.689,1496.48L563.948,1493.43L550.954,1483.49L538.71,1446.82L543.32,1435.74L560.115,1446.82L566.613,1441.07L549.039,1410.5L562.809,1394.46L540.237,1391.01L536.045,1410.5L526.495,1410.5L502.785,1401.7L502.785,1379.55L481.409,1351.64L448.537,1302.73L446.232,1272.16L443.926,1245.4L428.659,1218.27L406.115,1199.53L412.223,1168.57L426.174,1142.59L428.269,1113.16L426.174,1092.92L423.689,1065.77L416.205,1045.53L703.967,1045.53L703.967,1313.17L1070.08,1653.54L1073.4,1656.62L1073.4,1672.43L1085.11,1688.24C1085.11,1688.24 1083.58,1696.38 1085.11,1698.92C1086.66,1701.47 1094.3,1709.64 1094.3,1709.64L1104.98,1716.77L1091.24,1728.98L1080.52,1741.23L1080.02,1754.49L1079.51,1772.81L1069.84,1784.54Z" style="fill:rgb(204,204,204);fill-rule:nonzero;"/>
        <path d="M725.218,1735.75C725.218,1735.75 720.249,1738.8 720.249,1740.15C720.249,1741.46 725.039,1743.77 725.039,1743.77L734.978,1741.11L739.379,1737.27L732.493,1734.61L725.218,1735.75Z" style="fill:rgb(204,204,204);fill-rule:nonzero;"/>
        <path d="M1113.16,1045.53L1110.13,1483.88L1110.1,1489.24L1108.55,1567.2L1061.93,1567.2L1070.08,1653.54L703.967,1313.17L703.967,1045.53L1113.16,1045.53Z" style="fill:rgb(204,204,204);fill-rule:nonzero;"/>
        <rect x="1449.48" y="1138.91" width="477.98" height="344.97" style="fill:rgb(204,204,204);fill-rule:nonzero;"/>
        <path d="M2436.02,1359.04L2434.19,1483.88L1927.46,1483.88L1927.46,1223.99L2387.4,1223.99L2393.21,1230.64L2409.02,1240.31L2415.63,1250.99L2400.33,1262.73L2412.07,1279.05L2432.46,1298.39L2436.02,1359.04Z" style="fill:rgb(204,204,204);fill-rule:nonzero;"/>
        <rect x="1313.92" y="761.181" width="478.5" height="377.729" style="fill:rgb(204,204,204);fill-rule:nonzero;"/>
        <path d="M2308.99,825.757L2307.11,865.904L2308.99,887.309L2308.99,904.493L2299.95,910.601L2299.44,924.372L2308.99,939.64C2308.99,939.64 2304.02,956.465 2304.02,959.01C2304.02,961.555 2299.95,978.38 2299.95,979.907C2299.95,980.984 2302.77,988.978 2304.41,993.528L2285.7,981.703L2264.3,973.291L2239.06,963.351L2219.96,963.351L2202.38,973.291L2192.45,967.932L2181.73,959.519L2164.93,953.412L1792.42,953.412L1792.42,672.625L2299.98,672.625L2300.97,682.445C2300.97,682.445 2291.03,692.773 2290.28,695.048C2289.5,697.354 2280.73,707.682 2280.73,707.682L2300.97,725.256L2308.99,742.051L2306.72,761.181L2308.99,825.757Z" style="fill:rgb(204,204,204);fill-rule:nonzero;"/>
        <path d="M1927.46,1223.99L1927.46,1138.91L1792.42,1138.91L1792.42,953.412L2164.93,953.412L2181.73,959.519L2192.45,967.932L2202.38,973.291L2219.96,963.351L2239.06,963.351L2264.3,973.291L2285.7,981.703L2304.41,993.528C2305.07,995.415 2305.55,996.732 2305.55,996.732L2313.72,1009.96L2321.87,1033.41L2342.25,1095.59C2342.25,1095.59 2350.4,1124.12 2349.89,1128.19C2349.38,1132.29 2349.92,1160.82 2349.92,1160.82L2354.68,1171.63L2357.07,1177.11L2375.87,1210.76L2387.4,1223.99L1927.46,1223.99Z" style="fill:rgb(204,204,204);fill-rule:nonzero;"/>
        <path d="M3316.7,1522.2L3313.77,1535.1L3291.61,1553.46L3277.84,1564.92L3259.49,1564.92L3255.69,1573.3L3237.72,1573.3C3237.72,1573.3 3231.23,1580.97 3231.23,1583.24C3231.23,1585.55 3222.82,1593.96 3222.82,1593.96L3193,1606.18L3164.7,1616.12C3164.7,1616.12 3159.38,1626.05 3159.38,1628.36C3159.38,1630.63 3146.38,1637.28 3146.38,1637.28C3146.38,1637.28 3138.72,1632.43 3138.72,1637.28C3138.72,1639.92 3137.1,1649.41 3135.7,1657.4L2733.99,1657.4C2736.15,1654.41 2741.26,1647.04 2741.26,1645.42C2741.26,1643.39 2740.25,1630.63 2740.25,1630.63L2764.56,1582.88L2769.5,1572.17L2776.41,1557.26L2777.94,1543.13L2780.99,1530.88L2880.86,1530.88L2884.97,1517.53L3187.7,1520.79L3316.7,1522.2Z" style="fill:rgb(204,204,204);fill-rule:nonzero;"/>
        <path d="M2764.56,1582.88L2740.25,1630.63C2740.25,1630.63 2741.26,1643.39 2741.26,1645.42C2741.26,1647.04 2736.15,1654.41 2733.99,1657.4C2733.45,1658.21 2733.09,1658.69 2733.09,1658.69L2720.37,1665.3C2720.37,1665.3 2715.79,1673.96 2715.79,1675.99C2715.79,1678.03 2713.72,1683.66 2713.72,1683.66L2706.09,1699.94C2706.09,1699.94 2696.93,1712.69 2695.91,1714.22C2694.89,1715.75 2687.23,1717.78 2686.72,1720.84C2686.21,1723.89 2684.17,1732.06 2684.17,1734.1C2684.17,1736.14 2680.37,1752.93 2678.19,1754.49C2676.03,1756.01 2667.89,1770.26 2667.89,1770.26L2669.41,1783.53C2669.41,1783.53 2672.98,1796.76 2672.98,1798.8C2672.98,1800.83 2672.47,1815.11 2672.47,1815.11L2671.27,1818.67L2473.2,1818.67L2473.2,1790.65L2467.6,1773.83L2455.9,1773.83L2442.64,1769.25L2442.64,1585.28L2436.02,1550.64L2436.02,1531L2741,1535.61L2742.79,1545.28L2742.79,1554.2L2734.89,1560.07L2729.02,1567.47L2729.02,1572.29L2742.79,1573.57L2756.8,1572.05L2769.5,1572.17L2764.56,1582.88Z" style="fill:rgb(204,204,204);fill-rule:nonzero;"/>
        <path d="M2806.23,1501.84L2802.79,1530.88L2780.99,1530.88L2777.94,1543.13L2776.41,1557.26L2769.5,1572.17L2756.8,1572.05L2742.79,1573.57L2729.02,1572.29L2729.02,1567.47L2734.89,1560.07L2742.79,1554.2L2742.79,1545.28L2741,1535.61L2436.02,1531L2436.02,1529.75L2433.98,1498.67L2434.19,1483.88L2436.02,1359.04L2432.46,1298.39L2412.07,1279.05L2400.33,1262.73L2415.63,1250.99L2409.02,1240.31L2393.21,1230.64L2387.4,1223.99L2375.87,1210.76L2357.07,1177.11L2354.68,1171.63L2623.91,1171.63L2641.87,1179.68L2649.15,1186.54C2649.15,1190.37 2649.54,1202.97 2649.54,1204.5C2649.54,1206.03 2648.76,1235.46 2648.76,1238.15C2648.76,1240.81 2664.8,1257.64 2665.19,1258.78C2665.58,1259.92 2685.46,1280.18 2685.46,1280.18L2696.15,1292.4L2699.59,1312.67L2702.65,1321.08L2721.39,1314.97L2730.94,1321.08L2737.04,1335.99C2737.04,1335.99 2724.44,1359.31 2724.44,1360.45C2724.44,1361.58 2727.49,1386.43 2727.49,1386.43L2744.71,1400.05L2769.92,1421.58L2781.77,1439.54L2784.05,1455.23L2790.54,1478.91L2790.54,1487.32L2803.18,1487.32L2804.13,1491.93L2806.23,1501.84Z" style="fill:rgb(204,204,204);fill-rule:nonzero;"/>
        <path d="M2918.59,1331.02L2913.23,1345.27C2913.23,1345.27 2906.37,1355.99 2904.82,1357C2903.29,1358.02 2897.69,1364.64 2897.69,1364.64C2897.69,1364.64 2892.09,1373.32 2892.09,1374.85C2892.09,1376.37 2885.98,1394.7 2885.98,1394.7L2885.98,1412.54L2880.86,1428.85L2878.83,1440.05C2878.83,1440.05 2880.86,1445.17 2878.83,1446.19C2876.79,1447.21 2856.91,1452.8 2856.91,1452.8L2852.33,1475.74L2841.65,1478.79L2823.29,1469.12C2823.29,1469.12 2812.61,1470.14 2812.61,1471.67C2812.61,1473.19 2810.06,1483.88 2810.06,1483.88L2804.13,1491.93L2803.18,1487.32L2790.54,1487.32L2790.54,1478.91L2784.05,1455.23L2781.77,1439.54L2769.92,1421.58L2744.71,1400.05L2727.49,1386.43C2727.49,1386.43 2724.44,1361.58 2724.44,1360.45C2724.44,1359.31 2737.04,1335.99 2737.04,1335.99L2730.94,1321.08L2721.39,1314.97L2702.65,1321.08L2699.59,1312.67L2696.15,1292.4L2685.46,1280.18C2685.46,1280.18 2665.58,1259.92 2665.19,1258.78C2664.8,1257.64 2648.76,1240.81 2648.76,1238.15C2648.76,1235.46 2649.54,1206.03 2649.54,1204.5C2649.54,1202.97 2649.15,1190.37 2649.15,1186.54C2649.15,1182.74 2664.06,1171.27 2664.06,1171.27L2680.88,1149.09L2687.74,1130.37C2687.74,1130.37 2673.22,1114.33 2673.22,1113.16C2673.22,1112.02 2683.16,1096.72 2684.32,1095.98C2685.46,1095.2 2708.78,1087.17 2708.78,1087.17C2708.78,1087.17 2726.36,1074.57 2727.49,1073.79C2728.63,1073.04 2733.24,1048.58 2733.24,1048.58L2733.24,1034.06L2721.39,1013.41C2721.39,1013.41 2711.72,1003.77 2707.41,998.887L2900.29,998.887L2900.24,1004.13L2900.24,1018.89L2903.8,1036.97L2911.7,1060.41L2918.23,1069.54L2911.46,1248.45L2907.9,1294.82L2911.46,1314.7L2918.59,1331.02Z" style="fill:rgb(204,204,204);fill-rule:nonzero;"/>
        <path d="M3105.85,1069.6L3105.85,1329.49L3090.82,1339.16L3078.1,1340.96L3067.65,1340.96C3067.65,1340.96 3062.29,1340.69 3061.78,1340.96C3061.27,1341.2 3060.76,1349.37 3060.49,1350.9C3060.25,1352.42 3055.67,1363.11 3055.67,1363.11L3041.39,1368.2C3041.39,1368.2 3034.78,1374.58 3034.78,1375.59C3034.78,1376.61 3030.7,1387.84 3030.7,1387.84L3027.89,1400.05L3006.75,1400.05L2997.32,1389.88L2989.69,1395.47L2982.8,1404.63L2978.22,1412.3C2978.22,1412.3 2967.78,1403.62 2967,1403.89C2966.25,1404.13 2954.51,1412.3 2954.51,1412.3L2946.1,1416.61L2933.88,1416.61L2924.19,1411.01L2910.17,1406.16L2896.43,1411.28L2885.98,1411.28L2885.98,1394.7C2885.98,1394.7 2892.09,1376.37 2892.09,1374.85C2892.09,1373.32 2897.69,1364.64 2897.69,1364.64C2897.69,1364.64 2903.29,1358.02 2904.82,1357C2906.37,1355.99 2913.23,1345.27 2913.23,1345.27L2918.59,1331.02L2911.46,1314.7L2907.9,1294.82L2911.46,1248.45L2918.23,1069.54L2920.62,1072.89L2928.77,1078.76L2938.7,1082.59L2948.4,1078.76L2960.89,1075.47L2969.81,1070.35C2969.81,1070.35 2969.99,1070.08 2970.35,1069.6L3105.85,1069.6Z" style="fill:rgb(204,204,204);fill-rule:nonzero;"/>
        <path d="M3290.53,1443.64L3286.64,1448.34L3261.79,1462.12L3236.56,1486.19L3222.82,1503.01C3222.82,1503.01 3199.88,1516 3198.36,1517.53C3197.82,1518.07 3193.33,1519.36 3187.7,1520.79L2884.97,1517.53L2880.86,1530.88L2802.79,1530.88L2806.23,1501.84L2804.13,1491.93L2810.06,1483.88C2810.06,1483.88 2812.61,1473.19 2812.61,1471.67C2812.61,1470.14 2823.29,1469.12 2823.29,1469.12L2841.65,1478.79L2852.33,1475.74L2856.91,1452.8C2856.91,1452.8 2876.79,1447.21 2878.83,1446.19C2880.86,1445.17 2878.83,1440.05 2878.83,1440.05L2880.86,1428.85L2885.98,1412.54L2885.98,1411.28L2896.43,1411.28L2910.17,1406.16L2924.19,1411.01L2933.88,1416.61L2946.1,1416.61L2954.51,1412.3C2954.51,1412.3 2966.25,1404.13 2967,1403.89C2967.78,1403.62 2978.22,1412.3 2978.22,1412.3L2982.8,1404.63L2989.69,1395.47L2997.32,1389.88L3006.75,1400.05L3027.89,1400.05L3030.7,1387.84C3030.7,1387.84 3034.78,1376.61 3034.78,1375.59C3034.78,1374.58 3041.39,1368.2 3041.39,1368.2L3055.67,1363.11C3055.67,1363.11 3060.25,1352.42 3060.49,1350.9C3060.76,1349.37 3061.27,1341.2 3061.78,1340.96C3062.29,1340.69 3067.65,1340.96 3067.65,1340.96L3078.1,1340.96L3090.82,1339.16L3105.85,1329.49L3105.85,1304.7L3124.59,1306.95L3139.11,1322.22L3153.63,1334.07L3170.84,1341.35L3189.94,1341.35L3207.91,1343.62L3226.62,1343.62L3233.89,1338.26L3241.53,1352.78L3250.72,1361.58L3250.81,1361.58L3250.45,1372.66L3252.99,1394.46L3262.18,1413.56L3274.4,1427.33L3283.59,1437.66L3290.53,1443.64Z" style="fill:rgb(204,204,204);fill-rule:nonzero;"/>
        <path d="M3587.25,1284.08L3582.46,1293.18L3570.99,1297.01L3554.92,1285.9L3544.23,1279.79L3541.17,1292.04L3531.98,1303.86L3518.99,1321.47L3506,1329.88L3491.09,1340.96C3491.09,1340.96 3481.18,1363.5 3480.01,1363.89C3478.87,1364.25 3472.38,1358.14 3472.38,1358.14L3454.02,1352.78L3442.56,1365.81L3416.57,1409.36L3403.19,1437.66C3403.19,1437.66 3392.5,1450.26 3391.36,1450.26L3374.15,1450.26L3365.74,1462.47C3365.74,1462.47 3353.52,1463.25 3352,1463.25C3350.47,1463.25 3336.31,1464.39 3336.31,1464.39L3319.87,1468.97L3309.57,1465.17L3295.05,1447.57L3290.53,1443.64L3283.59,1437.66L3274.4,1427.33L3262.18,1413.56L3252.99,1394.46L3250.45,1372.66L3250.81,1361.58L3259.88,1361.58L3274.4,1358.14L3281.67,1337.9L3287.39,1310.9L3310.32,1292.79C3310.32,1292.79 3333.26,1282.85 3334.78,1281.71C3336.31,1280.57 3355.05,1269.11 3355.05,1269.11L3371.49,1252.28L3379.12,1225.52L3384.09,1206.81L3389.06,1190.37L3386.75,1177.77L3392.5,1166.66L3394.42,1164.32L3394.42,1251.14L3464.35,1251.14L3464.35,1290L3479.62,1284.76L3492.64,1273.69L3504.08,1273.69L3515.19,1265.66L3530.46,1267.58L3540.78,1259.41L3571.35,1259.41L3582.46,1273.69L3587.25,1284.08Z" style="fill:rgb(204,204,204);fill-rule:nonzero;"/>
        <path d="M3529.31,1754.28L3520.9,1756.25L3502.82,1768.47L3491.35,1792.42L3478.09,1818.67L3464.59,1823.25L3447.02,1832.69L3429.17,1850.77L3409.32,1861.22L3399.11,1863.76L3397.59,1873.19L3388.43,1876.25L3377.71,1869.39L3376.18,1886.96L3370.67,1896.81L3353.76,1892.05L3349.18,1871.66L3338.49,1845.68L3317.59,1811.04L3290.08,1769.76L3262.54,1750.39L3247.27,1724.4L3231.46,1698.41L3207,1683.66L3207,1672.43L3224.58,1657.4L3235.03,1648.48L3272.75,1637.28L3307.38,1639.83L3337.98,1639.83L3364.48,1646.44C3364.48,1646.44 3373.64,1664.29 3375.16,1664.79C3376.69,1665.3 3395.55,1670.39 3395.55,1670.39L3431.72,1671.92L3457.22,1675.48L3482.19,1695.36L3512.76,1730.54L3529.31,1754.28Z" style="fill:rgb(204,204,204);fill-rule:nonzero;"/>
        <path d="M3944.51,1136.5L3924.39,1139.28L3906.04,1140.81L3884.13,1141.83L3867.3,1146.17L3861.97,1147.1L3854.64,1159.25L3860.56,1168.83L3884.87,1169.37L3914.69,1160.69L3942.47,1150.51L3950.89,1141.59L3944.51,1136.5Z" style="fill:rgb(204,204,204);fill-rule:nonzero;"/>
        <path d="M3888.33,979.398L3881.68,1003.35L3876.59,1020.68L3873.87,1040.56L3872.52,1050.23L3875.07,1100.17L3869.98,1116.99L3857.22,1131.24L3857.22,1148.34L3856.98,1148.61L3856.47,1149.18L3852.22,1154.03L3851.77,1153.31L3851.77,1152.5L3850.16,1150.55L3844.23,1143.55L3823.09,1125.14L3792.53,1104.42L3790.13,1103.04L3777.23,1095.59C3777.23,1095.59 3770.61,1086.93 3769.09,1085.92C3767.53,1084.9 3764.48,1076.22 3764.48,1076.22L3757.35,1061.97L3745.88,1046.16L3444.2,1046.16L3444.2,1024.33C3446.9,1022.84 3455.97,1017.72 3456.18,1016.85C3456.45,1015.83 3463.33,1009.96 3463.33,1009.96L3471.23,1002.33L3483.72,992.391L3498.75,981.104L3505.24,974.039L3505.03,968.71L3501.98,964.698L3501.62,959.339L3497.97,950.538L3493,941.557L3492.64,935.06L3492.25,927.995L3503.51,928.563L3517.1,927.815L3523.39,921.887L3537.16,921.887L3562.36,922.636L3569.82,927.426L3586.64,929.701L3592.18,933.144L3607.09,932.964L3616.46,931.258L3621.43,927.216L3635.38,926.079L3643.98,924.552L3652.18,922.067L3660.8,917.875L3673.79,914.043L3678.94,906.2L3686.79,905.451L3689.84,891.89L3689.84,876.591L3694.81,865.515L3689.84,859.018L3681.04,855.186L3686.79,845.636C3686.79,845.636 3692.89,841.444 3692.89,840.277C3692.89,839.139 3696.73,831.505 3696.73,831.505L3700.53,823.841L3715.05,813.542L3730.35,799.382L3746.39,782.587L3772.38,769.953L3793.04,764.415L3882.01,764.415L3888.24,975.925L3888.33,979.398Z" style="fill:rgb(204,204,204);fill-rule:nonzero;"/>
        <path d="M3836.15,1174.35L3827.41,1181.45L3837.34,1185.79L3837.34,1209.47L3828.18,1249.74L3813.9,1268.33L3811.12,1281.32L3798.12,1289.22L3785.64,1312.16L3774.92,1318.26L3764.24,1297.88L3749.72,1286.68L3737.98,1279.79L3736.96,1280.81L3734.18,1276.23L3734.18,1261.44L3735.79,1238.39L3747.68,1235.73L3765.49,1229.62L3779.77,1213.81L3783.84,1203.09L3777.74,1192.41L3763.97,1175.58L3759.39,1153.16L3770.61,1124.63L3780.28,1113.43L3789.44,1103.73L3790.13,1103.04L3792.53,1104.42L3823.09,1125.14L3844.23,1143.55L3850.16,1150.55L3851.77,1152.5L3851.77,1153.31L3852.22,1154.03L3846.18,1160.85L3836.15,1174.35Z" style="fill:rgb(204,204,204);fill-rule:nonzero;"/>
        <path d="M993.331,2615.29C993.753,2614.59 994.034,2608.96 994.034,2608.96L986.723,2602.64L980.255,2597.85L962.961,2590.26L957.758,2587.17C957.758,2587.17 950.728,2566.5 950.728,2566.08C950.728,2565.66 935.964,2538.1 935.964,2538.1L926.262,2519.4L918.951,2511.24C918.951,2511.24 910.515,2506.32 910.093,2504.92C909.671,2503.51 903.765,2493.81 903.625,2493.24C903.485,2492.68 895.611,2485.79 895.611,2485.79C895.611,2485.79 895.189,2481.15 895.189,2480.73C895.189,2480.31 891.533,2474.12 891.533,2474.12L887.596,2472.29L870.301,2478.9L872.41,2482.28L868.052,2488.04L867.911,2495.07L862.287,2495.92L850.336,2504.92L846.258,2491.56L834.588,2479.46L827.839,2472.72C827.839,2472.72 826.714,2469.48 826.573,2468.92C826.433,2468.36 818.278,2460.62 818.278,2460.62L819.965,2450.36L806.607,2451.34L801.546,2456.27L792.687,2451.91L791,2455.14L782.189,2452.23L782.189,2020.76L779.658,2022.83L777.221,2023.29L774.877,2020.01L772.346,2017.01L769.628,2014.2L761.66,2013.64L754.255,2004.45L735.883,1995.36L710.011,2002.67L693.701,1995.36L670.079,1990.3L647.583,1990.3L631.835,1977.93L573.343,1977.93L576.717,1971.74L567.156,1967.8L567.156,1952.62L550.846,1949.24L536.223,1954.87L524.975,1961.05L524.975,1949.24L520.474,1937.99L513.164,1937.99L499.666,1932.37L488.98,1926.75L478.856,1929L468.733,1941.37L457.484,1952.62L440.799,1956.37L425.426,1956.37L413.053,1968.74C413.053,1968.74 405.554,1974.74 405.179,1975.86C404.804,1976.99 388.306,1985.99 388.306,1985.99L377.433,1985.99L372.558,1996.49L367.684,2005.11L360.935,2017.48C360.935,2017.48 358.31,2028.36 358.31,2029.48C358.31,2030.61 352.311,2046.73 352.311,2046.73C352.311,2046.73 344.062,2052.73 343.688,2054.23C343.313,2055.73 334.314,2061.351 334.314,2061.351L321.941,2062.851L309.192,2065.101L297.194,2063.601L294.944,2076.351L290.445,2084.97L290.445,2089.47L294.569,2093.601L302.818,2101.85L309.192,2106.72L324.565,2120.59L332.439,2127.72L338.438,2138.22L343.313,2147.21L346.312,2153.96L351.186,2156.96L362.81,2159.21L370.309,2159.21L377.433,2158.84L382.307,2158.09L383.432,2164.09L381.557,2171.96L385.307,2178.71L392.056,2180.58L395.055,2179.08L399.18,2178.71L403.304,2180.21L411.553,2180.21L412.303,2185.46L408.178,2189.49L399.555,2189.49L391.306,2185.83L382.682,2185.08C382.682,2185.08 378.183,2188.65 381.182,2189.49C384.182,2190.33 392.431,2191.46 392.431,2191.46L394.305,2196.71L388.306,2198.21L384.557,2201.21L380.057,2204.58L371.808,2206.08L363.185,2206.08L346.687,2205.71L341.813,2201.96L342.563,2194.46L344.062,2182.46L336.189,2181.33C336.189,2181.33 317.066,2184.71 316.691,2186.21C316.316,2187.71 312.567,2191.83 312.567,2191.83L301.319,2196.33L296.819,2200.83L286.32,2205.71L279.196,2209.46L276.197,2213.58L269.823,2216.96L263.074,2224.08L263.074,2230.45L273.572,2237.2L283.321,2239.45L291.195,2240.2L299.069,2243.95L288.945,2247.33L287.82,2250.7L286.695,2254.82L290.07,2260.82L291.195,2269.07L294.194,2273.2L306.943,2276.95L317.066,2280.32L329.815,2279.2L335.814,2274.7L346.312,2274.32L354.561,2276.2L361.31,2282.2L366.184,2284.45L366.934,2276.2L370.684,2271.32L375.933,2267.95L381.557,2264.95L388.681,2264.2L394.68,2262.32L398.43,2266.82L398.43,2273.95L392.431,2277.32L387.556,2279.2L392.056,2282.2L397.305,2289.32L397.68,2298.69L400.679,2305.44L400.679,2313.32L395.055,2319.69L386.056,2323.44L376.683,2323.44L369.934,2322.69L367.684,2327.94L363.935,2334.31L361.31,2338.44L356.811,2340.31L350.062,2341.06L345.562,2337.69L339.938,2332.06L333.189,2333.56C333.189,2333.56 327.19,2340.69 327.19,2340.97C327.19,2341.25 324.096,2346.22 324.096,2346.97C324.096,2347.72 323.534,2351.75 323.534,2351.75L323.534,2354.75C323.534,2354.75 321.003,2359.9 320.722,2360.37C320.441,2360.84 314.817,2365.62 314.723,2365.9C314.629,2366.18 308.443,2372.18 307.786,2373.78C307.13,2375.37 299.162,2394.68 300.006,2396.09C300.85,2397.49 300.85,2412.68 301.694,2412.96C302.537,2413.24 307.599,2417.74 309.005,2418.58C310.411,2419.43 316.597,2423.36 316.597,2423.36L322.784,2425.89L321.097,2432.36L314.91,2439.11C314.91,2439.11 310.973,2442.21 311.536,2443.61C312.098,2445.02 317.16,2448.67 317.16,2448.67C317.16,2448.67 323.628,2450.73 324.753,2452.23C325.878,2453.73 330.658,2460.76 330.658,2460.76L334.314,2466.11L336.844,2472.29L350.062,2472.29L358.779,2470.04C358.779,2470.04 363.841,2464.42 364.685,2464.42C365.528,2464.42 371.715,2457.39 372.558,2458.51C373.402,2459.64 377.058,2472.29 377.058,2472.29L380.995,2479.04L380.995,2485.23L378.464,2491.7L378.464,2499.57L384.088,2501.82L380.995,2508.57L377.058,2517.29L386.338,2518.69L391.962,2511.38L401.242,2506.32L410.522,2501.54L412.209,2507.16L421.208,2511.1L421.77,2508.85C421.77,2508.85 429.082,2512.23 429.082,2513.07C429.082,2513.91 432.175,2518.69 432.456,2520.1C432.737,2521.51 438.361,2526.57 438.361,2526.57L440.611,2522.91L439.486,2516.16L439.486,2511.66L443.423,2505.2L444.83,2511.66L447.361,2515.6L452.423,2518.13L460.296,2515.04L467.608,2510.54L472.951,2509.41L470.42,2516.73L463.389,2532.47L461.421,2548.5L458.047,2558.06L453.266,2563.69L446.798,2567.34L443.705,2574.66L441.736,2582.53L435.831,2582.53L428.519,2588.72C428.519,2588.72 419.521,2591.81 418.958,2592.65C418.396,2593.5 412.209,2597.15 411.647,2598C411.084,2598.84 408.553,2604.46 408.553,2604.46L406.585,2610.65L403.773,2614.02L398.711,2614.02L390.275,2612.9L384.651,2614.02L376.214,2619.93L370.309,2625.55L367.215,2631.74L361.029,2636.8L356.248,2640.74L350.905,2644.11L343.031,2646.08L331.502,2649.18L324.753,2654.52L321.097,2662.39L327.002,2664.08L334.314,2660.71L341.906,2657.61L348.374,2657.61L356.811,2647.77C356.811,2647.77 365.528,2644.4 366.653,2644.4C367.778,2644.4 375.652,2642.71 375.652,2642.71L381.276,2634.83L385.494,2628.65C385.494,2628.65 387.744,2621.34 388.869,2623.02C389.993,2624.71 388.306,2630.05 389.15,2630.33C389.993,2630.62 394.774,2632.58 395.899,2632.58C397.024,2632.58 403.211,2628.08 403.211,2628.08L410.522,2623.87L419.239,2619.65C419.239,2619.65 429.644,2616.56 430.769,2616.56C431.894,2616.56 444.267,2611.78 444.267,2611.78L451.016,2604.74L449.61,2599.68L445.673,2595.18C445.673,2595.18 450.173,2595.18 451.579,2594.62C452.985,2594.06 460.577,2592.65 460.577,2592.65L468.733,2587.59L472.951,2582.53L488.136,2571.56L490.667,2558.91L498.259,2554.69L506.977,2547.38C506.977,2547.38 513.164,2540.07 514.008,2539.79C514.851,2539.5 521.693,2537.54 522.63,2536.69C523.568,2535.85 530.036,2527.41 530.036,2527.41L533.973,2518.98L543.816,2508.01L540.722,2502.95L530.88,2500.7C530.88,2500.7 528.912,2496.48 529.755,2495.63C530.599,2494.79 533.13,2485.51 533.973,2484.67C534.817,2483.82 540.441,2479.32 541.285,2478.48C542.129,2477.64 548.315,2475.11 548.315,2475.11L552.252,2470.04C552.252,2470.04 559.282,2464.14 558.157,2462.45C557.033,2460.76 557.033,2454.58 557.033,2454.58L563.219,2449.24L568,2440.52L575.592,2430.96L590.778,2417.18L598.933,2414.08L605.964,2414.65L614.118,2422.8L618.899,2425.89C618.899,2425.89 620.586,2429.55 618.899,2429.55C617.212,2429.55 607.088,2427.3 607.088,2427.3L601.464,2427.86L597.808,2425.33L587.122,2435.74L584.029,2443.05L584.029,2449.52C584.029,2450.64 581.498,2456.55 581.217,2458.8C580.936,2461.05 574.749,2470.33 574.468,2471.17C574.187,2472.01 574.749,2476.51 576.717,2476.79C578.686,2477.08 584.029,2476.51 584.873,2475.95C585.716,2475.39 586.841,2474.83 586.841,2476.51C586.841,2478.2 585.716,2481.29 585.716,2482.14C585.716,2482.98 578.967,2484.95 578.967,2484.95L573.624,2490.29C573.624,2490.29 573.905,2496.2 575.592,2496.2C577.28,2496.2 587.404,2494.23 588.247,2493.95C589.091,2493.67 596.683,2490.01 597.527,2489.45C598.371,2488.89 605.964,2483.54 605.964,2483.54L617.212,2471.17L622.274,2465.83C622.274,2465.83 633.803,2465.54 636.615,2466.11C639.427,2466.67 646.739,2463.58 647.02,2462.45C647.301,2461.33 646.176,2454.58 646.176,2454.58C646.176,2454.58 646.739,2448.11 647.583,2447.83C648.426,2447.55 648.426,2443.89 647.301,2443.61C646.176,2443.33 642.521,2439.39 642.521,2438.27C642.521,2437.14 645.052,2432.08 647.02,2431.24C648.988,2430.39 654.332,2428.14 655.737,2427.3C657.144,2426.46 659.956,2425.61 661.362,2425.61C662.768,2425.61 668.392,2427.02 671.204,2425.89C674.016,2424.77 674.579,2423.08 676.266,2424.21C677.953,2425.33 676.266,2432.08 676.266,2432.08C676.266,2432.08 670.361,2434.33 672.891,2436.3C675.423,2438.27 679.641,2439.67 682.453,2439.39C685.265,2439.11 691.17,2440.24 689.483,2441.36C687.796,2442.49 684.702,2443.89 681.047,2445.3C677.391,2446.7 667.267,2448.11 670.642,2450.36C674.016,2452.61 674.86,2454.02 679.36,2453.45C683.859,2452.89 693.701,2449.24 693.701,2449.24L702.137,2453.17L711.418,2456.83L716.198,2460.2L726.884,2461.61L750.224,2463.01C750.224,2463.01 763.442,2464.14 764.004,2465.26C764.566,2466.39 772.159,2466.67 773.565,2467.23C774.971,2467.79 782.189,2472.86 782.189,2472.86L790.438,2475.95L799.717,2474.83C799.717,2474.83 807.591,2470.89 808.435,2472.29C809.279,2473.7 808.154,2478.2 808.435,2479.32C808.716,2480.45 806.466,2483.26 807.591,2484.11C808.716,2484.95 816.59,2492.26 816.59,2492.26L834.025,2501.54L843.024,2507.16C843.024,2507.16 850.617,2517.01 850.617,2517.85C850.617,2518.69 865.24,2528.54 865.24,2528.54L873.676,2528.54L876.769,2519.82C876.769,2519.82 869.458,2512.23 868.614,2511.38C867.771,2510.54 863.834,2506.32 865.802,2506.32L879.862,2506.32L879.862,2516.73L885.206,2524.88L895.329,2528.82C895.329,2528.82 897.86,2525.16 897.86,2524.32C897.86,2523.47 893.642,2512.51 893.642,2512.51L889.986,2500.98C889.986,2500.98 895.329,2507.16 896.173,2508.01C897.016,2508.85 901.516,2516.44 901.516,2516.44L904.89,2524.88L904.89,2530.5C904.89,2530.5 902.078,2534.72 902.078,2535.57C902.078,2536.41 902.922,2545.13 902.922,2545.13L906.859,2556.66L908.265,2569.03C908.265,2569.03 913.608,2572.97 914.733,2570.44C915.858,2567.91 919.513,2555.53 919.513,2555.53L915.858,2543.72L919.513,2539.22C919.513,2539.22 923.45,2542.88 923.45,2544C923.45,2545.13 926.262,2552.72 926.262,2552.72L928.793,2561.16L934.136,2569.59L938.636,2577.19L944.541,2583.93L948.478,2590.12L948.478,2600.81C948.478,2600.81 945.104,2605.87 945.104,2607.56C945.104,2609.24 948.478,2615.71 948.478,2615.71L953.399,2625.41C953.399,2625.41 957.055,2628.37 957.477,2628.79C957.899,2629.21 962.961,2634.69 962.961,2634.69L970.694,2637.79L975.052,2645.8L980.536,2652.69C980.536,2652.69 983.911,2651.99 984.051,2651.43C984.192,2650.86 992.769,2637.51 992.769,2637.51C992.769,2637.51 995.018,2627.38 995.018,2626.4C995.018,2625.41 992.909,2615.99 993.331,2615.29Z" style="fill:rgb(204,204,204);fill-rule:nonzero;"/>
        <path d="M299.584,2452.89L297.475,2450.22L291.569,2451.63L286.367,2452.19C286.367,2452.19 285.383,2456.27 284.82,2456.55C284.258,2456.83 275.119,2457.95 275.119,2457.95C275.119,2457.95 279.618,2464.14 280.04,2464.98C280.462,2465.83 286.367,2470.47 288.336,2471.03C290.304,2471.59 295.225,2472.29 296.772,2472.29C298.319,2472.29 302.677,2470.04 303.24,2470.04C303.802,2470.04 306.333,2466.25 306.333,2465.26L306.333,2457.39L303.943,2453.03L299.584,2452.89Z" style="fill:rgb(204,204,204);fill-rule:nonzero;"/>
        <path d="M563.688,2520.38L562.563,2516.16L557.689,2519.35C557.689,2519.35 556.939,2523.57 556.939,2523.94C556.939,2524.32 553.002,2528.54 552.627,2529C552.252,2529.47 548.128,2532.57 548.128,2532.85C548.128,2533.13 548.128,2535.85 547.096,2536.13C546.066,2536.41 543.816,2537.82 544.284,2538.85C544.753,2539.88 543.254,2541.75 542.785,2542.13C542.316,2542.5 538.192,2544.57 538.192,2544.57L533.317,2545.78C533.317,2545.78 532.661,2549.25 533.223,2550.47C533.786,2551.69 535.098,2553.85 534.817,2554.31C534.536,2554.78 531.068,2554.78 530.88,2554.5C530.693,2554.22 525.537,2552.91 525.537,2552.91L521.132,2557.22C521.132,2557.22 519.443,2564.06 519.443,2564.34C519.443,2564.63 521.132,2572.41 521.132,2572.41L524.319,2577.84L527.224,2581.03C527.224,2581.03 530.693,2583.56 531.068,2583.56C531.443,2583.56 536.411,2580.37 536.411,2579.81C536.411,2579.25 535.473,2574.94 539.129,2574.28C542.785,2573.62 545.597,2573.53 545.878,2573.72C546.159,2573.91 549.065,2574.47 549.253,2573.44C549.44,2572.41 550.752,2565.09 551.502,2565.09C552.252,2565.09 556.845,2565.19 556.845,2565.19L559.189,2563.69L559.189,2560.59L565.844,2557.59C565.844,2557.59 567.344,2555.91 567.156,2555.53C566.969,2555.16 563.219,2553 563.219,2553L560.314,2549.35L560.407,2545.69L554.689,2544.28C554.689,2544.28 551.971,2542.22 552.065,2541.94C552.158,2541.66 555.158,2537.07 555.72,2536.97C556.283,2536.88 559.845,2536.69 561.813,2536.5C563.782,2536.32 564.438,2532 564.438,2532C564.438,2532 568.937,2534.16 569.218,2534.07C569.5,2533.97 570.343,2526.38 570.343,2526.38L561.438,2526.38L563.688,2520.38Z" style="fill:rgb(204,204,204);fill-rule:nonzero;"/>
        <path d="M950.306,2629.77L946.509,2621.62L943.557,2614.73L939.364,2610.09L934.98,2603.62L930.059,2599.68C930.059,2599.68 925.137,2598.84 925.419,2600.53C925.7,2602.21 926.403,2609.53 926.403,2609.53C926.403,2609.53 922.747,2613.32 923.45,2613.32C924.154,2613.32 928.091,2618.67 928.091,2618.67C928.091,2618.67 930.762,2621.34 931.043,2621.76C931.324,2622.18 934.98,2628.08 934.98,2628.08C934.98,2628.08 936.667,2632.44 936.105,2632.44C935.542,2632.44 929.662,2633.01 929.79,2633.57C929.918,2634.13 934.558,2647.49 934.558,2647.49L939.62,2653.82C939.62,2653.82 949.041,2653.39 949.462,2653.82C949.884,2654.24 955.368,2648.89 955.368,2648.47C955.368,2648.05 952.134,2636.38 952.134,2636.38L950.306,2629.77Z" style="fill:rgb(204,204,204);fill-rule:nonzero;"/>
        <path d="M924.716,2593.78C924.716,2594.34 929.778,2595.89 929.778,2595.89L935.964,2593.07L944.822,2591.25L940.745,2584.22L935.964,2578.87L926.544,2574.51C926.544,2574.51 919.091,2571.98 919.091,2572.41C919.091,2572.83 920.92,2581.12 921.341,2581.12C921.763,2581.12 923.361,2586.04 923.361,2586.04L917.264,2583.65L912.342,2581.12C912.342,2581.12 910.093,2587.59 910.515,2588.01C910.936,2588.43 915.014,2595.18 915.014,2595.18C915.014,2595.18 912.764,2602.35 912.764,2603.2C912.764,2604.04 915.717,2605.03 915.717,2605.03L920.076,2598.28L921.341,2591.53C921.341,2591.53 924.716,2593.21 924.716,2593.78Z" style="fill:rgb(204,204,204);fill-rule:nonzero;"/>
        <path d="M902.219,2579.58C902.219,2578.73 900.391,2568.47 900.391,2568.47L898.844,2562.28C898.844,2562.28 899.407,2557.36 899.407,2556.09C899.407,2554.83 898.704,2547.66 898.704,2547.66L898.001,2539.64L892.658,2535.14L887.315,2532.75L880.144,2530.36L873.254,2535L870.442,2539.93C870.442,2539.93 874.238,2550.61 874.66,2550.89C875.082,2551.17 878.316,2554.55 878.879,2555.11C879.441,2555.67 882.956,2560.31 882.956,2560.31C882.956,2560.31 883.94,2567.63 883.799,2568.19C883.659,2568.75 883.378,2575.36 883.378,2575.36C883.378,2575.36 886.752,2573.86 886.893,2572.36C887.033,2570.86 888.721,2569.45 889.565,2569.59C890.408,2569.73 891.252,2570.76 892.095,2572.36C892.939,2573.95 894.345,2574.51 893.08,2576.62C891.814,2578.73 891.674,2583.23 891.955,2584.64C892.236,2586.04 894.626,2588.69 894.626,2588.69C894.626,2588.69 899.266,2589.14 899.548,2590.4C899.829,2591.67 900.391,2596.45 900.391,2597.01C900.391,2597.57 903.625,2603.06 903.906,2602.35C904.187,2601.65 905.172,2595.04 905.031,2594.48C904.89,2593.92 902.219,2580.42 902.219,2579.58Z" style="fill:rgb(204,204,204);fill-rule:nonzero;"/>
        <path d="M1974.28,2753.5L1955.99,2744.15L1948.33,2732.23L1941.52,2723.3L1931.74,2719.05L1939.39,2706.71L1926.63,2690.12L1902.38,2674.8L1884.09,2663.74L1862.82,2655.24L1841.55,2647.58L1824.53,2637.79L1812.62,2628.01L1802.41,2628.01L1796.46,2636.09L1799.01,2653.11L1809.65,2668L1803.69,2683.31L1784.97,2699.05L1770.51,2714.37L1777.74,2736.06L1786.67,2756.91L1797.31,2785.41L1797.73,2806.68L1794.33,2832.21L1801.99,2844.12L1824.11,2859.01L1840.27,2863.26L1848.78,2853.48L1864.95,2833.06L1882.82,2819.44L1900.26,2805.83L1919.4,2805.83C1921.1,2805.83 1931.74,2799.88 1931.74,2799.88L1947.05,2792.22L1968.75,2778.18C1968.75,2778.18 1976.4,2765.84 1976.4,2764.14C1976.4,2762.44 1974.28,2753.5 1974.28,2753.5Z" style="fill:rgb(204,204,204);fill-rule:nonzero;"/>
        <path d="M1778.59,2549.73L1778.59,2535.7L1759.87,2528.04L1751.79,2516.98L1741.15,2511.02L1721.16,2507.62L1704.99,2515.7L1698.19,2508.47L1687.55,2499.11L1684.57,2496.13L1673.51,2498.69L1668.41,2514L1680.75,2531.44C1680.75,2531.44 1690.96,2535.7 1692.23,2535.27C1693.51,2534.85 1704.14,2535.3 1704.14,2535.3L1704.14,2546.76L1707.97,2563.77L1714.78,2570.15L1730.09,2570.15L1751.79,2564.62L1767.95,2557.82C1767.95,2557.82 1778.59,2551.01 1778.59,2549.73Z" style="fill:rgb(204,204,204);fill-rule:nonzero;"/>
        <path d="M1672.24,2575.26L1668.41,2579.09L1667.24,2585.51C1667.24,2585.51 1678.19,2585.04 1679.47,2585.47C1680.75,2585.89 1690.11,2583.24 1690.11,2583.24L1690.11,2572.49L1684.68,2569.41L1672.24,2575.26Z" style="fill:rgb(204,204,204);fill-rule:nonzero;"/>
        <path d="M1644.27,2521.66C1644.27,2520.86 1635.01,2516.55 1635.01,2516.55L1628.08,2512.72L1612.84,2512.72L1608.37,2514.64C1608.37,2514.64 1609.17,2520.54 1609.97,2521.5C1610.77,2522.46 1615.07,2529 1615.87,2529.95C1616.67,2530.91 1618.74,2536.97 1618.74,2536.97C1618.74,2536.97 1619.54,2542.72 1620.18,2543.03C1620.82,2543.35 1623.69,2544.79 1625.6,2544.79C1627.52,2544.79 1636.93,2543.83 1637.89,2543.03C1638.84,2542.24 1643.15,2538.73 1643.15,2538.73C1643.15,2538.73 1647.94,2528.68 1647.78,2528.76C1647.62,2528.84 1644.27,2522.46 1644.27,2521.66Z" style="fill:rgb(204,204,204);fill-rule:nonzero;"/>
        <path d="M1655.65,2468.8L1648.84,2468.38L1635.23,2468.38L1625.34,2468.59L1611.19,2465.29L1601.19,2463.27L1592.69,2463.16L1580.67,2462.1L1576.95,2459.73L1576.42,2459.76C1576.42,2459.76 1573.86,2459.55 1573.86,2460.29C1573.86,2461.04 1574.29,2467.1 1574.29,2467.42C1574.29,2467.74 1569.08,2470.93 1569.08,2470.93C1569.08,2470.93 1566.1,2476.35 1566.21,2476.78C1566.31,2477.2 1565.46,2481.46 1565.46,2481.46C1565.46,2481.46 1571.63,2483.16 1572.27,2483.16C1572.91,2483.16 1584.28,2483.69 1584.71,2483.16C1585.14,2482.63 1590.67,2481.46 1591.2,2481.46C1591.73,2481.46 1602.47,2481.88 1602.47,2481.88L1608.37,2482.09C1608.37,2482.09 1618.11,2485.82 1618.42,2486.03C1618.74,2486.24 1629.91,2489.33 1629.91,2489.33L1643.52,2488.79L1651.07,2485.18L1659.58,2476.14C1659.58,2476.14 1659.8,2472.31 1659.58,2471.99C1659.37,2471.67 1655.65,2468.8 1655.65,2468.8Z" style="fill:rgb(204,204,204);fill-rule:nonzero;"/>
        <path d="M1493.99,2424.67L1492.29,2419.77L1485.91,2418.71L1479.32,2416.16L1477.19,2412.54L1476.98,2407.44L1475.06,2402.33L1469.32,2397.01L1463.79,2386.59L1457.92,2376.38L1454.43,2372.13L1448.69,2377.23L1441.88,2380.63L1437.2,2389.14L1431.03,2394.67L1418.69,2394.67C1418.69,2394.67 1407.85,2396.59 1408.48,2397.01C1409.12,2397.44 1411.46,2405.31 1411.46,2405.31L1411.89,2414.46L1416.36,2418.71L1420.18,2427.64L1426.35,2433.81L1431.44,2438.92L1431.44,2445.72L1445.28,2445.72L1451.66,2443.38L1454.43,2438.49L1458.05,2442.74L1461.45,2444.45L1466.77,2441.68C1466.77,2441.68 1473.57,2444.02 1474.21,2444.66C1474.85,2445.3 1480.38,2449.76 1480.38,2449.76L1485.48,2452.95L1493.99,2451.89L1498.25,2449.76C1498.25,2449.76 1500.37,2451.68 1501.01,2451.25C1501.65,2450.83 1506.12,2445.94 1506.12,2445.94L1507.39,2442.32L1496.76,2432.75L1493.99,2424.67Z" style="fill:rgb(204,204,204);fill-rule:nonzero;"/>
        <path d="M1221.09,2280.88C1221.09,2280.88 1212.16,2280.24 1212.16,2280.88C1212.16,2281.51 1202.8,2285.34 1202.8,2285.34L1193.87,2284.92L1191.74,2282.15L1182.38,2284.49L1174.51,2288.53L1165.79,2293.21L1161.54,2301.51C1161.54,2301.51 1156.22,2307.25 1156.22,2308.74L1156.22,2320.01L1165.15,2326.18L1177.7,2330.65L1183.02,2335.97L1195.36,2338.95L1206.63,2342.77L1215.35,2341.07L1221.09,2335.33L1224.92,2332.14L1224.92,2325.33L1232.79,2312.46C1232.79,2312.46 1235.56,2298.11 1235.56,2297.47C1235.56,2296.83 1232.37,2285.98 1232.37,2285.98L1221.09,2280.88Z" style="fill:rgb(204,204,204);fill-rule:nonzero;"/>
        <path d="M1100.06,2320.87L1097.72,2326.61L1095.17,2330.22L1090.07,2332.56L1085.6,2337.67L1080.5,2343.84L1080.5,2351.49C1080.5,2351.49 1080.28,2357.88 1080.5,2358.51C1080.71,2359.15 1084.54,2358.51 1084.54,2358.51L1086.66,2357.02L1088.37,2351.92L1094.75,2344.26L1105.81,2339.83L1107.93,2335.33L1107.93,2328.31L1106.87,2320.87L1100.06,2320.87Z" style="fill:rgb(204,204,204);fill-rule:nonzero;"/>
    </g>
</svg>
